<?xml version="1.0" encoding="utf-8" standalone="no"?>
<!DOCTYPE svg PUBLIC "-//W3C//DTD SVG 1.1//EN"
  "http://www.w3.org/Graphics/SVG/1.1/DTD/svg11.dtd">
<!-- Created with matplotlib (http://matplotlib.org/) -->
<svg height="345.6pt" version="1.1" viewBox="0 0 460.8 345.6" width="460.8pt" xmlns="http://www.w3.org/2000/svg" xmlns:xlink="http://www.w3.org/1999/xlink">
 <defs>
  <style type="text/css">
*{stroke-linecap:butt;stroke-linejoin:round;}
  </style>
 </defs>
 <g id="figure_1">
  <g id="patch_1">
   <path d="M 0 345.6 
L 460.8 345.6 
L 460.8 0 
L 0 0 
z
" style="fill:#ffffff;"/>
  </g>
  <g id="axes_1">
   <g id="patch_2">
    <path d="M 57.6 307.584 
L 414.72 307.584 
L 414.72 41.472 
L 57.6 41.472 
z
" style="fill:#ffffff;"/>
   </g>
   <g id="patch_3">
    <path clip-path="url(#pab2d857695)" d="M 73.832727 307.584 
L 75.997091 307.584 
L 75.997091 307.533322 
L 73.832727 307.533322 
z
" style="fill:#00ffff;stroke:#000000;stroke-linejoin:miter;stroke-width:0.5;"/>
   </g>
   <g id="patch_4">
    <path clip-path="url(#pab2d857695)" d="M 75.997091 307.584 
L 78.161455 307.584 
L 78.161455 307.584 
L 75.997091 307.584 
z
" style="fill:#00ffff;stroke:#000000;stroke-linejoin:miter;stroke-width:0.5;"/>
   </g>
   <g id="patch_5">
    <path clip-path="url(#pab2d857695)" d="M 78.161455 307.584 
L 80.325818 307.584 
L 80.325818 307.584 
L 78.161455 307.584 
z
" style="fill:#00ffff;stroke:#000000;stroke-linejoin:miter;stroke-width:0.5;"/>
   </g>
   <g id="patch_6">
    <path clip-path="url(#pab2d857695)" d="M 80.325818 307.584 
L 82.490182 307.584 
L 82.490182 307.584 
L 80.325818 307.584 
z
" style="fill:#00ffff;stroke:#000000;stroke-linejoin:miter;stroke-width:0.5;"/>
   </g>
   <g id="patch_7">
    <path clip-path="url(#pab2d857695)" d="M 82.490182 307.584 
L 84.654545 307.584 
L 84.654545 307.533322 
L 82.490182 307.533322 
z
" style="fill:#00ffff;stroke:#000000;stroke-linejoin:miter;stroke-width:0.5;"/>
   </g>
   <g id="patch_8">
    <path clip-path="url(#pab2d857695)" d="M 84.654545 307.584 
L 86.818909 307.584 
L 86.818909 307.584 
L 84.654545 307.584 
z
" style="fill:#00ffff;stroke:#000000;stroke-linejoin:miter;stroke-width:0.5;"/>
   </g>
   <g id="patch_9">
    <path clip-path="url(#pab2d857695)" d="M 86.818909 307.584 
L 88.983273 307.584 
L 88.983273 307.584 
L 86.818909 307.584 
z
" style="fill:#00ffff;stroke:#000000;stroke-linejoin:miter;stroke-width:0.5;"/>
   </g>
   <g id="patch_10">
    <path clip-path="url(#pab2d857695)" d="M 88.983273 307.584 
L 91.147636 307.584 
L 91.147636 307.584 
L 88.983273 307.584 
z
" style="fill:#00ffff;stroke:#000000;stroke-linejoin:miter;stroke-width:0.5;"/>
   </g>
   <g id="patch_11">
    <path clip-path="url(#pab2d857695)" d="M 91.147636 307.584 
L 93.312 307.584 
L 93.312 307.584 
L 91.147636 307.584 
z
" style="fill:#00ffff;stroke:#000000;stroke-linejoin:miter;stroke-width:0.5;"/>
   </g>
   <g id="patch_12">
    <path clip-path="url(#pab2d857695)" d="M 93.312 307.584 
L 95.476364 307.584 
L 95.476364 307.533322 
L 93.312 307.533322 
z
" style="fill:#00ffff;stroke:#000000;stroke-linejoin:miter;stroke-width:0.5;"/>
   </g>
   <g id="patch_13">
    <path clip-path="url(#pab2d857695)" d="M 95.476364 307.584 
L 97.640727 307.584 
L 97.640727 307.584 
L 95.476364 307.584 
z
" style="fill:#00ffff;stroke:#000000;stroke-linejoin:miter;stroke-width:0.5;"/>
   </g>
   <g id="patch_14">
    <path clip-path="url(#pab2d857695)" d="M 97.640727 307.584 
L 99.805091 307.584 
L 99.805091 307.533322 
L 97.640727 307.533322 
z
" style="fill:#00ffff;stroke:#000000;stroke-linejoin:miter;stroke-width:0.5;"/>
   </g>
   <g id="patch_15">
    <path clip-path="url(#pab2d857695)" d="M 99.805091 307.584 
L 101.969455 307.584 
L 101.969455 307.533322 
L 99.805091 307.533322 
z
" style="fill:#00ffff;stroke:#000000;stroke-linejoin:miter;stroke-width:0.5;"/>
   </g>
   <g id="patch_16">
    <path clip-path="url(#pab2d857695)" d="M 101.969455 307.584 
L 104.133818 307.584 
L 104.133818 307.584 
L 101.969455 307.584 
z
" style="fill:#00ffff;stroke:#000000;stroke-linejoin:miter;stroke-width:0.5;"/>
   </g>
   <g id="patch_17">
    <path clip-path="url(#pab2d857695)" d="M 104.133818 307.584 
L 106.298182 307.584 
L 106.298182 307.584 
L 104.133818 307.584 
z
" style="fill:#00ffff;stroke:#000000;stroke-linejoin:miter;stroke-width:0.5;"/>
   </g>
   <g id="patch_18">
    <path clip-path="url(#pab2d857695)" d="M 106.298182 307.584 
L 108.462545 307.584 
L 108.462545 307.584 
L 106.298182 307.584 
z
" style="fill:#00ffff;stroke:#000000;stroke-linejoin:miter;stroke-width:0.5;"/>
   </g>
   <g id="patch_19">
    <path clip-path="url(#pab2d857695)" d="M 108.462545 307.584 
L 110.626909 307.584 
L 110.626909 307.533322 
L 108.462545 307.533322 
z
" style="fill:#00ffff;stroke:#000000;stroke-linejoin:miter;stroke-width:0.5;"/>
   </g>
   <g id="patch_20">
    <path clip-path="url(#pab2d857695)" d="M 110.626909 307.584 
L 112.791273 307.584 
L 112.791273 307.584 
L 110.626909 307.584 
z
" style="fill:#00ffff;stroke:#000000;stroke-linejoin:miter;stroke-width:0.5;"/>
   </g>
   <g id="patch_21">
    <path clip-path="url(#pab2d857695)" d="M 112.791273 307.584 
L 114.955636 307.584 
L 114.955636 307.584 
L 112.791273 307.584 
z
" style="fill:#00ffff;stroke:#000000;stroke-linejoin:miter;stroke-width:0.5;"/>
   </g>
   <g id="patch_22">
    <path clip-path="url(#pab2d857695)" d="M 114.955636 307.584 
L 117.12 307.584 
L 117.12 307.533322 
L 114.955636 307.533322 
z
" style="fill:#00ffff;stroke:#000000;stroke-linejoin:miter;stroke-width:0.5;"/>
   </g>
   <g id="patch_23">
    <path clip-path="url(#pab2d857695)" d="M 117.12 307.584 
L 119.284364 307.584 
L 119.284364 307.584 
L 117.12 307.584 
z
" style="fill:#00ffff;stroke:#000000;stroke-linejoin:miter;stroke-width:0.5;"/>
   </g>
   <g id="patch_24">
    <path clip-path="url(#pab2d857695)" d="M 119.284364 307.584 
L 121.448727 307.584 
L 121.448727 307.533322 
L 119.284364 307.533322 
z
" style="fill:#00ffff;stroke:#000000;stroke-linejoin:miter;stroke-width:0.5;"/>
   </g>
   <g id="patch_25">
    <path clip-path="url(#pab2d857695)" d="M 121.448727 307.584 
L 123.613091 307.584 
L 123.613091 307.584 
L 121.448727 307.584 
z
" style="fill:#00ffff;stroke:#000000;stroke-linejoin:miter;stroke-width:0.5;"/>
   </g>
   <g id="patch_26">
    <path clip-path="url(#pab2d857695)" d="M 123.613091 307.584 
L 125.777455 307.584 
L 125.777455 307.482644 
L 123.613091 307.482644 
z
" style="fill:#00ffff;stroke:#000000;stroke-linejoin:miter;stroke-width:0.5;"/>
   </g>
   <g id="patch_27">
    <path clip-path="url(#pab2d857695)" d="M 125.777455 307.584 
L 127.941818 307.584 
L 127.941818 307.482644 
L 125.777455 307.482644 
z
" style="fill:#00ffff;stroke:#000000;stroke-linejoin:miter;stroke-width:0.5;"/>
   </g>
   <g id="patch_28">
    <path clip-path="url(#pab2d857695)" d="M 127.941818 307.584 
L 130.106182 307.584 
L 130.106182 307.482644 
L 127.941818 307.482644 
z
" style="fill:#00ffff;stroke:#000000;stroke-linejoin:miter;stroke-width:0.5;"/>
   </g>
   <g id="patch_29">
    <path clip-path="url(#pab2d857695)" d="M 130.106182 307.584 
L 132.270545 307.584 
L 132.270545 307.584 
L 130.106182 307.584 
z
" style="fill:#00ffff;stroke:#000000;stroke-linejoin:miter;stroke-width:0.5;"/>
   </g>
   <g id="patch_30">
    <path clip-path="url(#pab2d857695)" d="M 132.270545 307.584 
L 134.434909 307.584 
L 134.434909 307.584 
L 132.270545 307.584 
z
" style="fill:#00ffff;stroke:#000000;stroke-linejoin:miter;stroke-width:0.5;"/>
   </g>
   <g id="patch_31">
    <path clip-path="url(#pab2d857695)" d="M 134.434909 307.584 
L 136.599273 307.584 
L 136.599273 307.533322 
L 134.434909 307.533322 
z
" style="fill:#00ffff;stroke:#000000;stroke-linejoin:miter;stroke-width:0.5;"/>
   </g>
   <g id="patch_32">
    <path clip-path="url(#pab2d857695)" d="M 136.599273 307.584 
L 138.763636 307.584 
L 138.763636 307.584 
L 136.599273 307.584 
z
" style="fill:#00ffff;stroke:#000000;stroke-linejoin:miter;stroke-width:0.5;"/>
   </g>
   <g id="patch_33">
    <path clip-path="url(#pab2d857695)" d="M 138.763636 307.584 
L 140.928 307.584 
L 140.928 307.584 
L 138.763636 307.584 
z
" style="fill:#00ffff;stroke:#000000;stroke-linejoin:miter;stroke-width:0.5;"/>
   </g>
   <g id="patch_34">
    <path clip-path="url(#pab2d857695)" d="M 140.928 307.584 
L 143.092364 307.584 
L 143.092364 307.482644 
L 140.928 307.482644 
z
" style="fill:#00ffff;stroke:#000000;stroke-linejoin:miter;stroke-width:0.5;"/>
   </g>
   <g id="patch_35">
    <path clip-path="url(#pab2d857695)" d="M 143.092364 307.584 
L 145.256727 307.584 
L 145.256727 307.482644 
L 143.092364 307.482644 
z
" style="fill:#00ffff;stroke:#000000;stroke-linejoin:miter;stroke-width:0.5;"/>
   </g>
   <g id="patch_36">
    <path clip-path="url(#pab2d857695)" d="M 145.256727 307.584 
L 147.421091 307.584 
L 147.421091 307.533322 
L 145.256727 307.533322 
z
" style="fill:#00ffff;stroke:#000000;stroke-linejoin:miter;stroke-width:0.5;"/>
   </g>
   <g id="patch_37">
    <path clip-path="url(#pab2d857695)" d="M 147.421091 307.584 
L 149.585455 307.584 
L 149.585455 307.533322 
L 147.421091 307.533322 
z
" style="fill:#00ffff;stroke:#000000;stroke-linejoin:miter;stroke-width:0.5;"/>
   </g>
   <g id="patch_38">
    <path clip-path="url(#pab2d857695)" d="M 149.585455 307.584 
L 151.749818 307.584 
L 151.749818 307.330611 
L 149.585455 307.330611 
z
" style="fill:#00ffff;stroke:#000000;stroke-linejoin:miter;stroke-width:0.5;"/>
   </g>
   <g id="patch_39">
    <path clip-path="url(#pab2d857695)" d="M 151.749818 307.584 
L 153.914182 307.584 
L 153.914182 307.330611 
L 151.749818 307.330611 
z
" style="fill:#00ffff;stroke:#000000;stroke-linejoin:miter;stroke-width:0.5;"/>
   </g>
   <g id="patch_40">
    <path clip-path="url(#pab2d857695)" d="M 153.914182 307.584 
L 156.078545 307.584 
L 156.078545 307.584 
L 153.914182 307.584 
z
" style="fill:#00ffff;stroke:#000000;stroke-linejoin:miter;stroke-width:0.5;"/>
   </g>
   <g id="patch_41">
    <path clip-path="url(#pab2d857695)" d="M 156.078545 307.584 
L 158.242909 307.584 
L 158.242909 307.381289 
L 156.078545 307.381289 
z
" style="fill:#00ffff;stroke:#000000;stroke-linejoin:miter;stroke-width:0.5;"/>
   </g>
   <g id="patch_42">
    <path clip-path="url(#pab2d857695)" d="M 158.242909 307.584 
L 160.407273 307.584 
L 160.407273 307.482644 
L 158.242909 307.482644 
z
" style="fill:#00ffff;stroke:#000000;stroke-linejoin:miter;stroke-width:0.5;"/>
   </g>
   <g id="patch_43">
    <path clip-path="url(#pab2d857695)" d="M 160.407273 307.584 
L 162.571636 307.584 
L 162.571636 307.431966 
L 160.407273 307.431966 
z
" style="fill:#00ffff;stroke:#000000;stroke-linejoin:miter;stroke-width:0.5;"/>
   </g>
   <g id="patch_44">
    <path clip-path="url(#pab2d857695)" d="M 162.571636 307.584 
L 164.736 307.584 
L 164.736 307.533322 
L 162.571636 307.533322 
z
" style="fill:#00ffff;stroke:#000000;stroke-linejoin:miter;stroke-width:0.5;"/>
   </g>
   <g id="patch_45">
    <path clip-path="url(#pab2d857695)" d="M 164.736 307.584 
L 166.900364 307.584 
L 166.900364 307.381289 
L 164.736 307.381289 
z
" style="fill:#00ffff;stroke:#000000;stroke-linejoin:miter;stroke-width:0.5;"/>
   </g>
   <g id="patch_46">
    <path clip-path="url(#pab2d857695)" d="M 166.900364 307.584 
L 169.064727 307.584 
L 169.064727 307.279933 
L 166.900364 307.279933 
z
" style="fill:#00ffff;stroke:#000000;stroke-linejoin:miter;stroke-width:0.5;"/>
   </g>
   <g id="patch_47">
    <path clip-path="url(#pab2d857695)" d="M 169.064727 307.584 
L 171.229091 307.584 
L 171.229091 307.381289 
L 169.064727 307.381289 
z
" style="fill:#00ffff;stroke:#000000;stroke-linejoin:miter;stroke-width:0.5;"/>
   </g>
   <g id="patch_48">
    <path clip-path="url(#pab2d857695)" d="M 171.229091 307.584 
L 173.393455 307.584 
L 173.393455 307.482644 
L 171.229091 307.482644 
z
" style="fill:#00ffff;stroke:#000000;stroke-linejoin:miter;stroke-width:0.5;"/>
   </g>
   <g id="patch_49">
    <path clip-path="url(#pab2d857695)" d="M 173.393455 307.584 
L 175.557818 307.584 
L 175.557818 307.330611 
L 173.393455 307.330611 
z
" style="fill:#00ffff;stroke:#000000;stroke-linejoin:miter;stroke-width:0.5;"/>
   </g>
   <g id="patch_50">
    <path clip-path="url(#pab2d857695)" d="M 175.557818 307.584 
L 177.722182 307.584 
L 177.722182 307.229255 
L 175.557818 307.229255 
z
" style="fill:#00ffff;stroke:#000000;stroke-linejoin:miter;stroke-width:0.5;"/>
   </g>
   <g id="patch_51">
    <path clip-path="url(#pab2d857695)" d="M 177.722182 307.584 
L 179.886545 307.584 
L 179.886545 307.482644 
L 177.722182 307.482644 
z
" style="fill:#00ffff;stroke:#000000;stroke-linejoin:miter;stroke-width:0.5;"/>
   </g>
   <g id="patch_52">
    <path clip-path="url(#pab2d857695)" d="M 179.886545 307.584 
L 182.050909 307.584 
L 182.050909 307.330611 
L 179.886545 307.330611 
z
" style="fill:#00ffff;stroke:#000000;stroke-linejoin:miter;stroke-width:0.5;"/>
   </g>
   <g id="patch_53">
    <path clip-path="url(#pab2d857695)" d="M 182.050909 307.584 
L 184.215273 307.584 
L 184.215273 307.330611 
L 182.050909 307.330611 
z
" style="fill:#00ffff;stroke:#000000;stroke-linejoin:miter;stroke-width:0.5;"/>
   </g>
   <g id="patch_54">
    <path clip-path="url(#pab2d857695)" d="M 184.215273 307.584 
L 186.379636 307.584 
L 186.379636 307.279933 
L 184.215273 307.279933 
z
" style="fill:#00ffff;stroke:#000000;stroke-linejoin:miter;stroke-width:0.5;"/>
   </g>
   <g id="patch_55">
    <path clip-path="url(#pab2d857695)" d="M 186.379636 307.584 
L 188.544 307.584 
L 188.544 307.431966 
L 186.379636 307.431966 
z
" style="fill:#00ffff;stroke:#000000;stroke-linejoin:miter;stroke-width:0.5;"/>
   </g>
   <g id="patch_56">
    <path clip-path="url(#pab2d857695)" d="M 188.544 307.584 
L 190.708364 307.584 
L 190.708364 307.431966 
L 188.544 307.431966 
z
" style="fill:#00ffff;stroke:#000000;stroke-linejoin:miter;stroke-width:0.5;"/>
   </g>
   <g id="patch_57">
    <path clip-path="url(#pab2d857695)" d="M 190.708364 307.584 
L 192.872727 307.584 
L 192.872727 307.229255 
L 190.708364 307.229255 
z
" style="fill:#00ffff;stroke:#000000;stroke-linejoin:miter;stroke-width:0.5;"/>
   </g>
   <g id="patch_58">
    <path clip-path="url(#pab2d857695)" d="M 192.872727 307.584 
L 195.037091 307.584 
L 195.037091 306.975866 
L 192.872727 306.975866 
z
" style="fill:#00ffff;stroke:#000000;stroke-linejoin:miter;stroke-width:0.5;"/>
   </g>
   <g id="patch_59">
    <path clip-path="url(#pab2d857695)" d="M 195.037091 307.584 
L 197.201455 307.584 
L 197.201455 306.925188 
L 195.037091 306.925188 
z
" style="fill:#00ffff;stroke:#000000;stroke-linejoin:miter;stroke-width:0.5;"/>
   </g>
   <g id="patch_60">
    <path clip-path="url(#pab2d857695)" d="M 197.201455 307.584 
L 199.365818 307.584 
L 199.365818 306.925188 
L 197.201455 306.925188 
z
" style="fill:#00ffff;stroke:#000000;stroke-linejoin:miter;stroke-width:0.5;"/>
   </g>
   <g id="patch_61">
    <path clip-path="url(#pab2d857695)" d="M 199.365818 307.584 
L 201.530182 307.584 
L 201.530182 307.178577 
L 199.365818 307.178577 
z
" style="fill:#00ffff;stroke:#000000;stroke-linejoin:miter;stroke-width:0.5;"/>
   </g>
   <g id="patch_62">
    <path clip-path="url(#pab2d857695)" d="M 201.530182 307.584 
L 203.694545 307.584 
L 203.694545 306.823832 
L 201.530182 306.823832 
z
" style="fill:#00ffff;stroke:#000000;stroke-linejoin:miter;stroke-width:0.5;"/>
   </g>
   <g id="patch_63">
    <path clip-path="url(#pab2d857695)" d="M 203.694545 307.584 
L 205.858909 307.584 
L 205.858909 306.823832 
L 203.694545 306.823832 
z
" style="fill:#00ffff;stroke:#000000;stroke-linejoin:miter;stroke-width:0.5;"/>
   </g>
   <g id="patch_64">
    <path clip-path="url(#pab2d857695)" d="M 205.858909 307.584 
L 208.023273 307.584 
L 208.023273 306.87451 
L 205.858909 306.87451 
z
" style="fill:#00ffff;stroke:#000000;stroke-linejoin:miter;stroke-width:0.5;"/>
   </g>
   <g id="patch_65">
    <path clip-path="url(#pab2d857695)" d="M 208.023273 307.584 
L 210.187636 307.584 
L 210.187636 306.621121 
L 208.023273 306.621121 
z
" style="fill:#00ffff;stroke:#000000;stroke-linejoin:miter;stroke-width:0.5;"/>
   </g>
   <g id="patch_66">
    <path clip-path="url(#pab2d857695)" d="M 210.187636 307.584 
L 212.352 307.584 
L 212.352 306.519765 
L 210.187636 306.519765 
z
" style="fill:#00ffff;stroke:#000000;stroke-linejoin:miter;stroke-width:0.5;"/>
   </g>
   <g id="patch_67">
    <path clip-path="url(#pab2d857695)" d="M 212.352 307.584 
L 214.516364 307.584 
L 214.516364 306.519765 
L 212.352 306.519765 
z
" style="fill:#00ffff;stroke:#000000;stroke-linejoin:miter;stroke-width:0.5;"/>
   </g>
   <g id="patch_68">
    <path clip-path="url(#pab2d857695)" d="M 214.516364 307.584 
L 216.680727 307.584 
L 216.680727 306.16502 
L 214.516364 306.16502 
z
" style="fill:#00ffff;stroke:#000000;stroke-linejoin:miter;stroke-width:0.5;"/>
   </g>
   <g id="patch_69">
    <path clip-path="url(#pab2d857695)" d="M 216.680727 307.584 
L 218.845091 307.584 
L 218.845091 306.621121 
L 216.680727 306.621121 
z
" style="fill:#00ffff;stroke:#000000;stroke-linejoin:miter;stroke-width:0.5;"/>
   </g>
   <g id="patch_70">
    <path clip-path="url(#pab2d857695)" d="M 218.845091 307.584 
L 221.009455 307.584 
L 221.009455 306.519765 
L 218.845091 306.519765 
z
" style="fill:#00ffff;stroke:#000000;stroke-linejoin:miter;stroke-width:0.5;"/>
   </g>
   <g id="patch_71">
    <path clip-path="url(#pab2d857695)" d="M 221.009455 307.584 
L 223.173818 307.584 
L 223.173818 306.317053 
L 221.009455 306.317053 
z
" style="fill:#00ffff;stroke:#000000;stroke-linejoin:miter;stroke-width:0.5;"/>
   </g>
   <g id="patch_72">
    <path clip-path="url(#pab2d857695)" d="M 223.173818 307.584 
L 225.338182 307.584 
L 225.338182 305.404852 
L 223.173818 305.404852 
z
" style="fill:#00ffff;stroke:#000000;stroke-linejoin:miter;stroke-width:0.5;"/>
   </g>
   <g id="patch_73">
    <path clip-path="url(#pab2d857695)" d="M 225.338182 307.584 
L 227.502545 307.584 
L 227.502545 305.303496 
L 225.338182 305.303496 
z
" style="fill:#00ffff;stroke:#000000;stroke-linejoin:miter;stroke-width:0.5;"/>
   </g>
   <g id="patch_74">
    <path clip-path="url(#pab2d857695)" d="M 227.502545 307.584 
L 229.666909 307.584 
L 229.666909 306.16502 
L 227.502545 306.16502 
z
" style="fill:#00ffff;stroke:#000000;stroke-linejoin:miter;stroke-width:0.5;"/>
   </g>
   <g id="patch_75">
    <path clip-path="url(#pab2d857695)" d="M 229.666909 307.584 
L 231.831273 307.584 
L 231.831273 304.898073 
L 229.666909 304.898073 
z
" style="fill:#00ffff;stroke:#000000;stroke-linejoin:miter;stroke-width:0.5;"/>
   </g>
   <g id="patch_76">
    <path clip-path="url(#pab2d857695)" d="M 231.831273 307.584 
L 233.995636 307.584 
L 233.995636 305.303496 
L 231.831273 305.303496 
z
" style="fill:#00ffff;stroke:#000000;stroke-linejoin:miter;stroke-width:0.5;"/>
   </g>
   <g id="patch_77">
    <path clip-path="url(#pab2d857695)" d="M 233.995636 307.584 
L 236.16 307.584 
L 236.16 304.948751 
L 233.995636 304.948751 
z
" style="fill:#00ffff;stroke:#000000;stroke-linejoin:miter;stroke-width:0.5;"/>
   </g>
   <g id="patch_78">
    <path clip-path="url(#pab2d857695)" d="M 236.16 307.584 
L 238.324364 307.584 
L 238.324364 305.151463 
L 236.16 305.151463 
z
" style="fill:#00ffff;stroke:#000000;stroke-linejoin:miter;stroke-width:0.5;"/>
   </g>
   <g id="patch_79">
    <path clip-path="url(#pab2d857695)" d="M 238.324364 307.584 
L 240.488727 307.584 
L 240.488727 305.100785 
L 238.324364 305.100785 
z
" style="fill:#00ffff;stroke:#000000;stroke-linejoin:miter;stroke-width:0.5;"/>
   </g>
   <g id="patch_80">
    <path clip-path="url(#pab2d857695)" d="M 240.488727 307.584 
L 242.653091 307.584 
L 242.653091 304.188583 
L 240.488727 304.188583 
z
" style="fill:#00ffff;stroke:#000000;stroke-linejoin:miter;stroke-width:0.5;"/>
   </g>
   <g id="patch_81">
    <path clip-path="url(#pab2d857695)" d="M 242.653091 307.584 
L 244.817455 307.584 
L 244.817455 303.681804 
L 242.653091 303.681804 
z
" style="fill:#00ffff;stroke:#000000;stroke-linejoin:miter;stroke-width:0.5;"/>
   </g>
   <g id="patch_82">
    <path clip-path="url(#pab2d857695)" d="M 244.817455 307.584 
L 246.981818 307.584 
L 246.981818 303.985872 
L 244.817455 303.985872 
z
" style="fill:#00ffff;stroke:#000000;stroke-linejoin:miter;stroke-width:0.5;"/>
   </g>
   <g id="patch_83">
    <path clip-path="url(#pab2d857695)" d="M 246.981818 307.584 
L 249.146182 307.584 
L 249.146182 302.820281 
L 246.981818 302.820281 
z
" style="fill:#00ffff;stroke:#000000;stroke-linejoin:miter;stroke-width:0.5;"/>
   </g>
   <g id="patch_84">
    <path clip-path="url(#pab2d857695)" d="M 249.146182 307.584 
L 251.310545 307.584 
L 251.310545 303.175026 
L 249.146182 303.175026 
z
" style="fill:#00ffff;stroke:#000000;stroke-linejoin:miter;stroke-width:0.5;"/>
   </g>
   <g id="patch_85">
    <path clip-path="url(#pab2d857695)" d="M 251.310545 307.584 
L 253.474909 307.584 
L 253.474909 302.212146 
L 251.310545 302.212146 
z
" style="fill:#00ffff;stroke:#000000;stroke-linejoin:miter;stroke-width:0.5;"/>
   </g>
   <g id="patch_86">
    <path clip-path="url(#pab2d857695)" d="M 253.474909 307.584 
L 255.639273 307.584 
L 255.639273 301.908079 
L 253.474909 301.908079 
z
" style="fill:#00ffff;stroke:#000000;stroke-linejoin:miter;stroke-width:0.5;"/>
   </g>
   <g id="patch_87">
    <path clip-path="url(#pab2d857695)" d="M 255.639273 307.584 
L 257.803636 307.584 
L 257.803636 301.350623 
L 255.639273 301.350623 
z
" style="fill:#00ffff;stroke:#000000;stroke-linejoin:miter;stroke-width:0.5;"/>
   </g>
   <g id="patch_88">
    <path clip-path="url(#pab2d857695)" d="M 257.803636 307.584 
L 259.968 307.584 
L 259.968 300.134354 
L 257.803636 300.134354 
z
" style="fill:#00ffff;stroke:#000000;stroke-linejoin:miter;stroke-width:0.5;"/>
   </g>
   <g id="patch_89">
    <path clip-path="url(#pab2d857695)" d="M 259.968 307.584 
L 262.132364 307.584 
L 262.132364 300.286388 
L 259.968 300.286388 
z
" style="fill:#00ffff;stroke:#000000;stroke-linejoin:miter;stroke-width:0.5;"/>
   </g>
   <g id="patch_90">
    <path clip-path="url(#pab2d857695)" d="M 262.132364 307.584 
L 264.296727 307.584 
L 264.296727 299.374186 
L 262.132364 299.374186 
z
" style="fill:#00ffff;stroke:#000000;stroke-linejoin:miter;stroke-width:0.5;"/>
   </g>
   <g id="patch_91">
    <path clip-path="url(#pab2d857695)" d="M 264.296727 307.584 
L 266.461091 307.584 
L 266.461091 299.120797 
L 264.296727 299.120797 
z
" style="fill:#00ffff;stroke:#000000;stroke-linejoin:miter;stroke-width:0.5;"/>
   </g>
   <g id="patch_92">
    <path clip-path="url(#pab2d857695)" d="M 266.461091 307.584 
L 268.625455 307.584 
L 268.625455 297.043004 
L 266.461091 297.043004 
z
" style="fill:#00ffff;stroke:#000000;stroke-linejoin:miter;stroke-width:0.5;"/>
   </g>
   <g id="patch_93">
    <path clip-path="url(#pab2d857695)" d="M 268.625455 307.584 
L 270.789818 307.584 
L 270.789818 296.637581 
L 268.625455 296.637581 
z
" style="fill:#00ffff;stroke:#000000;stroke-linejoin:miter;stroke-width:0.5;"/>
   </g>
   <g id="patch_94">
    <path clip-path="url(#pab2d857695)" d="M 270.789818 307.584 
L 272.954182 307.584 
L 272.954182 294.610467 
L 270.789818 294.610467 
z
" style="fill:#00ffff;stroke:#000000;stroke-linejoin:miter;stroke-width:0.5;"/>
   </g>
   <g id="patch_95">
    <path clip-path="url(#pab2d857695)" d="M 272.954182 307.584 
L 275.118545 307.584 
L 275.118545 292.887419 
L 272.954182 292.887419 
z
" style="fill:#00ffff;stroke:#000000;stroke-linejoin:miter;stroke-width:0.5;"/>
   </g>
   <g id="patch_96">
    <path clip-path="url(#pab2d857695)" d="M 275.118545 307.584 
L 277.282909 307.584 
L 277.282909 293.090131 
L 275.118545 293.090131 
z
" style="fill:#00ffff;stroke:#000000;stroke-linejoin:miter;stroke-width:0.5;"/>
   </g>
   <g id="patch_97">
    <path clip-path="url(#pab2d857695)" d="M 277.282909 307.584 
L 279.447273 307.584 
L 279.447273 291.063016 
L 277.282909 291.063016 
z
" style="fill:#00ffff;stroke:#000000;stroke-linejoin:miter;stroke-width:0.5;"/>
   </g>
   <g id="patch_98">
    <path clip-path="url(#pab2d857695)" d="M 279.447273 307.584 
L 281.611636 307.584 
L 281.611636 289.846747 
L 279.447273 289.846747 
z
" style="fill:#00ffff;stroke:#000000;stroke-linejoin:miter;stroke-width:0.5;"/>
   </g>
   <g id="patch_99">
    <path clip-path="url(#pab2d857695)" d="M 281.611636 307.584 
L 283.776 307.584 
L 283.776 288.1237 
L 281.611636 288.1237 
z
" style="fill:#00ffff;stroke:#000000;stroke-linejoin:miter;stroke-width:0.5;"/>
   </g>
   <g id="patch_100">
    <path clip-path="url(#pab2d857695)" d="M 283.776 307.584 
L 285.940364 307.584 
L 285.940364 285.843196 
L 283.776 285.843196 
z
" style="fill:#00ffff;stroke:#000000;stroke-linejoin:miter;stroke-width:0.5;"/>
   </g>
   <g id="patch_101">
    <path clip-path="url(#pab2d857695)" d="M 285.940364 307.584 
L 288.104727 307.584 
L 288.104727 283.562692 
L 285.940364 283.562692 
z
" style="fill:#ff0000;stroke:#000000;stroke-linejoin:miter;stroke-width:0.5;"/>
   </g>
   <g id="patch_102">
    <path clip-path="url(#pab2d857695)" d="M 288.104727 307.584 
L 290.269091 307.584 
L 290.269091 283.055914 
L 288.104727 283.055914 
z
" style="fill:#ff0000;stroke:#000000;stroke-linejoin:miter;stroke-width:0.5;"/>
   </g>
   <g id="patch_103">
    <path clip-path="url(#pab2d857695)" d="M 290.269091 307.584 
L 292.433455 307.584 
L 292.433455 279.711175 
L 290.269091 279.711175 
z
" style="fill:#ff0000;stroke:#000000;stroke-linejoin:miter;stroke-width:0.5;"/>
   </g>
   <g id="patch_104">
    <path clip-path="url(#pab2d857695)" d="M 292.433455 307.584 
L 294.597818 307.584 
L 294.597818 275.251522 
L 292.433455 275.251522 
z
" style="fill:#ff0000;stroke:#000000;stroke-linejoin:miter;stroke-width:0.5;"/>
   </g>
   <g id="patch_105">
    <path clip-path="url(#pab2d857695)" d="M 294.597818 307.584 
L 296.762182 307.584 
L 296.762182 268.764756 
L 294.597818 268.764756 
z
" style="fill:#ff0000;stroke:#000000;stroke-linejoin:miter;stroke-width:0.5;"/>
   </g>
   <g id="patch_106">
    <path clip-path="url(#pab2d857695)" d="M 296.762182 307.584 
L 298.926545 307.584 
L 298.926545 266.382896 
L 296.762182 266.382896 
z
" style="fill:#ff0000;stroke:#000000;stroke-linejoin:miter;stroke-width:0.5;"/>
   </g>
   <g id="patch_107">
    <path clip-path="url(#pab2d857695)" d="M 298.926545 307.584 
L 301.090909 307.584 
L 301.090909 261.821888 
L 298.926545 261.821888 
z
" style="fill:#ff0000;stroke:#000000;stroke-linejoin:miter;stroke-width:0.5;"/>
   </g>
   <g id="patch_108">
    <path clip-path="url(#pab2d857695)" d="M 301.090909 307.584 
L 303.255273 307.584 
L 303.255273 255.689867 
L 301.090909 255.689867 
z
" style="fill:#ff0000;stroke:#000000;stroke-linejoin:miter;stroke-width:0.5;"/>
   </g>
   <g id="patch_109">
    <path clip-path="url(#pab2d857695)" d="M 303.255273 307.584 
L 305.419636 307.584 
L 305.419636 252.243772 
L 303.255273 252.243772 
z
" style="fill:#ff0000;stroke:#000000;stroke-linejoin:miter;stroke-width:0.5;"/>
   </g>
   <g id="patch_110">
    <path clip-path="url(#pab2d857695)" d="M 305.419636 307.584 
L 307.584 307.584 
L 307.584 246.973274 
L 305.419636 246.973274 
z
" style="fill:#ff0000;stroke:#000000;stroke-linejoin:miter;stroke-width:0.5;"/>
   </g>
   <g id="patch_111">
    <path clip-path="url(#pab2d857695)" d="M 307.584 307.584 
L 309.748364 307.584 
L 309.748364 235.21601 
L 307.584 235.21601 
z
" style="fill:#ff0000;stroke:#000000;stroke-linejoin:miter;stroke-width:0.5;"/>
   </g>
   <g id="patch_112">
    <path clip-path="url(#pab2d857695)" d="M 309.748364 307.584 
L 311.912727 307.584 
L 311.912727 226.600773 
L 309.748364 226.600773 
z
" style="fill:#ff0000;stroke:#000000;stroke-linejoin:miter;stroke-width:0.5;"/>
   </g>
   <g id="patch_113">
    <path clip-path="url(#pab2d857695)" d="M 311.912727 307.584 
L 314.077091 307.584 
L 314.077091 215.857065 
L 311.912727 215.857065 
z
" style="fill:#ff0000;stroke:#000000;stroke-linejoin:miter;stroke-width:0.5;"/>
   </g>
   <g id="patch_114">
    <path clip-path="url(#pab2d857695)" d="M 314.077091 307.584 
L 316.241455 307.584 
L 316.241455 209.877077 
L 314.077091 209.877077 
z
" style="fill:#ff0000;stroke:#000000;stroke-linejoin:miter;stroke-width:0.5;"/>
   </g>
   <g id="patch_115">
    <path clip-path="url(#pab2d857695)" d="M 316.241455 307.584 
L 318.405818 307.584 
L 318.405818 194.927107 
L 316.241455 194.927107 
z
" style="fill:#ff0000;stroke:#000000;stroke-linejoin:miter;stroke-width:0.5;"/>
   </g>
   <g id="patch_116">
    <path clip-path="url(#pab2d857695)" d="M 318.405818 307.584 
L 320.570182 307.584 
L 320.570182 184.842212 
L 318.405818 184.842212 
z
" style="fill:#ff0000;stroke:#000000;stroke-linejoin:miter;stroke-width:0.5;"/>
   </g>
   <g id="patch_117">
    <path clip-path="url(#pab2d857695)" d="M 320.570182 307.584 
L 322.734545 307.584 
L 322.734545 168.473262 
L 320.570182 168.473262 
z
" style="fill:#ff0000;stroke:#000000;stroke-linejoin:miter;stroke-width:0.5;"/>
   </g>
   <g id="patch_118">
    <path clip-path="url(#pab2d857695)" d="M 322.734545 307.584 
L 324.898909 307.584 
L 324.898909 151.040077 
L 322.734545 151.040077 
z
" style="fill:#ff0000;stroke:#000000;stroke-linejoin:miter;stroke-width:0.5;"/>
   </g>
   <g id="patch_119">
    <path clip-path="url(#pab2d857695)" d="M 324.898909 307.584 
L 327.063273 307.584 
L 327.063273 130.059441 
L 324.898909 130.059441 
z
" style="fill:#ff0000;stroke:#000000;stroke-linejoin:miter;stroke-width:0.5;"/>
   </g>
   <g id="patch_120">
    <path clip-path="url(#pab2d857695)" d="M 327.063273 307.584 
L 329.227636 307.584 
L 329.227636 114.957437 
L 327.063273 114.957437 
z
" style="fill:#ff0000;stroke:#000000;stroke-linejoin:miter;stroke-width:0.5;"/>
   </g>
   <g id="patch_121">
    <path clip-path="url(#pab2d857695)" d="M 329.227636 307.584 
L 331.392 307.584 
L 331.392 92.405788 
L 329.227636 92.405788 
z
" style="fill:#ff0000;stroke:#000000;stroke-linejoin:miter;stroke-width:0.5;"/>
   </g>
   <g id="patch_122">
    <path clip-path="url(#pab2d857695)" d="M 331.392 307.584 
L 333.556364 307.584 
L 333.556364 81.712758 
L 331.392 81.712758 
z
" style="fill:#ff0000;stroke:#000000;stroke-linejoin:miter;stroke-width:0.5;"/>
   </g>
   <g id="patch_123">
    <path clip-path="url(#pab2d857695)" d="M 333.556364 307.584 
L 335.720727 307.584 
L 335.720727 70.664984 
L 333.556364 70.664984 
z
" style="fill:#ff0000;stroke:#000000;stroke-linejoin:miter;stroke-width:0.5;"/>
   </g>
   <g id="patch_124">
    <path clip-path="url(#pab2d857695)" d="M 335.720727 307.584 
L 337.885091 307.584 
L 337.885091 61.390935 
L 335.720727 61.390935 
z
" style="fill:#ff0000;stroke:#000000;stroke-linejoin:miter;stroke-width:0.5;"/>
   </g>
   <g id="patch_125">
    <path clip-path="url(#pab2d857695)" d="M 337.885091 307.584 
L 340.049455 307.584 
L 340.049455 54.144 
L 337.885091 54.144 
z
" style="fill:#ff0000;stroke:#000000;stroke-linejoin:miter;stroke-width:0.5;"/>
   </g>
   <g id="patch_126">
    <path clip-path="url(#pab2d857695)" d="M 340.049455 307.584 
L 342.213818 307.584 
L 342.213818 58.857041 
L 340.049455 58.857041 
z
" style="fill:#ff0000;stroke:#000000;stroke-linejoin:miter;stroke-width:0.5;"/>
   </g>
   <g id="patch_127">
    <path clip-path="url(#pab2d857695)" d="M 342.213818 307.584 
L 344.378182 307.584 
L 344.378182 64.887707 
L 342.213818 64.887707 
z
" style="fill:#ff0000;stroke:#000000;stroke-linejoin:miter;stroke-width:0.5;"/>
   </g>
   <g id="patch_128">
    <path clip-path="url(#pab2d857695)" d="M 344.378182 307.584 
L 346.542545 307.584 
L 346.542545 79.330899 
L 344.378182 79.330899 
z
" style="fill:#ff0000;stroke:#000000;stroke-linejoin:miter;stroke-width:0.5;"/>
   </g>
   <g id="patch_129">
    <path clip-path="url(#pab2d857695)" d="M 346.542545 307.584 
L 348.706909 307.584 
L 348.706909 92.912566 
L 346.542545 92.912566 
z
" style="fill:#ff0000;stroke:#000000;stroke-linejoin:miter;stroke-width:0.5;"/>
   </g>
   <g id="patch_130">
    <path clip-path="url(#pab2d857695)" d="M 348.706909 307.584 
L 350.871273 307.584 
L 350.871273 113.842524 
L 348.706909 113.842524 
z
" style="fill:#ff0000;stroke:#000000;stroke-linejoin:miter;stroke-width:0.5;"/>
   </g>
   <g id="patch_131">
    <path clip-path="url(#pab2d857695)" d="M 350.871273 307.584 
L 353.035636 307.584 
L 353.035636 134.367059 
L 350.871273 134.367059 
z
" style="fill:#ff0000;stroke:#000000;stroke-linejoin:miter;stroke-width:0.5;"/>
   </g>
   <g id="patch_132">
    <path clip-path="url(#pab2d857695)" d="M 353.035636 307.584 
L 355.2 307.584 
L 355.2 158.388367 
L 353.035636 158.388367 
z
" style="fill:#ff0000;stroke:#000000;stroke-linejoin:miter;stroke-width:0.5;"/>
   </g>
   <g id="patch_133">
    <path clip-path="url(#pab2d857695)" d="M 355.2 307.584 
L 357.364364 307.584 
L 357.364364 177.088499 
L 355.2 177.088499 
z
" style="fill:#ff0000;stroke:#000000;stroke-linejoin:miter;stroke-width:0.5;"/>
   </g>
   <g id="patch_134">
    <path clip-path="url(#pab2d857695)" d="M 357.364364 307.584 
L 359.528727 307.584 
L 359.528727 203.795734 
L 357.364364 203.795734 
z
" style="fill:#ff0000;stroke:#000000;stroke-linejoin:miter;stroke-width:0.5;"/>
   </g>
   <g id="patch_135">
    <path clip-path="url(#pab2d857695)" d="M 359.528727 307.584 
L 361.693091 307.584 
L 361.693091 224.016202 
L 359.528727 224.016202 
z
" style="fill:#00ffff;stroke:#000000;stroke-linejoin:miter;stroke-width:0.5;"/>
   </g>
   <g id="patch_136">
    <path clip-path="url(#pab2d857695)" d="M 361.693091 307.584 
L 363.857455 307.584 
L 363.857455 244.591415 
L 361.693091 244.591415 
z
" style="fill:#00ffff;stroke:#000000;stroke-linejoin:miter;stroke-width:0.5;"/>
   </g>
   <g id="patch_137">
    <path clip-path="url(#pab2d857695)" d="M 363.857455 307.584 
L 366.021818 307.584 
L 366.021818 258.679861 
L 363.857455 258.679861 
z
" style="fill:#00ffff;stroke:#000000;stroke-linejoin:miter;stroke-width:0.5;"/>
   </g>
   <g id="patch_138">
    <path clip-path="url(#pab2d857695)" d="M 366.021818 307.584 
L 368.186182 307.584 
L 368.186182 269.879669 
L 366.021818 269.879669 
z
" style="fill:#00ffff;stroke:#000000;stroke-linejoin:miter;stroke-width:0.5;"/>
   </g>
   <g id="patch_139">
    <path clip-path="url(#pab2d857695)" d="M 368.186182 307.584 
L 370.350545 307.584 
L 370.350545 280.826088 
L 368.186182 280.826088 
z
" style="fill:#00ffff;stroke:#000000;stroke-linejoin:miter;stroke-width:0.5;"/>
   </g>
   <g id="patch_140">
    <path clip-path="url(#pab2d857695)" d="M 370.350545 307.584 
L 372.514909 307.584 
L 372.514909 289.339969 
L 370.350545 289.339969 
z
" style="fill:#00ffff;stroke:#000000;stroke-linejoin:miter;stroke-width:0.5;"/>
   </g>
   <g id="patch_141">
    <path clip-path="url(#pab2d857695)" d="M 372.514909 307.584 
L 374.679273 307.584 
L 374.679273 294.002332 
L 372.514909 294.002332 
z
" style="fill:#00ffff;stroke:#000000;stroke-linejoin:miter;stroke-width:0.5;"/>
   </g>
   <g id="patch_142">
    <path clip-path="url(#pab2d857695)" d="M 374.679273 307.584 
L 376.843636 307.584 
L 376.843636 297.347071 
L 374.679273 297.347071 
z
" style="fill:#00ffff;stroke:#000000;stroke-linejoin:miter;stroke-width:0.5;"/>
   </g>
   <g id="patch_143">
    <path clip-path="url(#pab2d857695)" d="M 376.843636 307.584 
L 379.008 307.584 
L 379.008 302.465536 
L 376.843636 302.465536 
z
" style="fill:#00ffff;stroke:#000000;stroke-linejoin:miter;stroke-width:0.5;"/>
   </g>
   <g id="patch_144">
    <path clip-path="url(#pab2d857695)" d="M 379.008 307.584 
L 381.172364 307.584 
L 381.172364 304.49265 
L 379.008 304.49265 
z
" style="fill:#00ffff;stroke:#000000;stroke-linejoin:miter;stroke-width:0.5;"/>
   </g>
   <g id="patch_145">
    <path clip-path="url(#pab2d857695)" d="M 381.172364 307.584 
L 383.336727 307.584 
L 383.336727 305.506208 
L 381.172364 305.506208 
z
" style="fill:#00ffff;stroke:#000000;stroke-linejoin:miter;stroke-width:0.5;"/>
   </g>
   <g id="patch_146">
    <path clip-path="url(#pab2d857695)" d="M 383.336727 307.584 
L 385.501091 307.584 
L 385.501091 306.317053 
L 383.336727 306.317053 
z
" style="fill:#00ffff;stroke:#000000;stroke-linejoin:miter;stroke-width:0.5;"/>
   </g>
   <g id="patch_147">
    <path clip-path="url(#pab2d857695)" d="M 385.501091 307.584 
L 387.665455 307.584 
L 387.665455 306.975866 
L 385.501091 306.975866 
z
" style="fill:#00ffff;stroke:#000000;stroke-linejoin:miter;stroke-width:0.5;"/>
   </g>
   <g id="patch_148">
    <path clip-path="url(#pab2d857695)" d="M 387.665455 307.584 
L 389.829818 307.584 
L 389.829818 307.077221 
L 387.665455 307.077221 
z
" style="fill:#00ffff;stroke:#000000;stroke-linejoin:miter;stroke-width:0.5;"/>
   </g>
   <g id="patch_149">
    <path clip-path="url(#pab2d857695)" d="M 389.829818 307.584 
L 391.994182 307.584 
L 391.994182 307.229255 
L 389.829818 307.229255 
z
" style="fill:#00ffff;stroke:#000000;stroke-linejoin:miter;stroke-width:0.5;"/>
   </g>
   <g id="patch_150">
    <path clip-path="url(#pab2d857695)" d="M 391.994182 307.584 
L 394.158545 307.584 
L 394.158545 307.431966 
L 391.994182 307.431966 
z
" style="fill:#00ffff;stroke:#000000;stroke-linejoin:miter;stroke-width:0.5;"/>
   </g>
   <g id="patch_151">
    <path clip-path="url(#pab2d857695)" d="M 394.158545 307.584 
L 396.322909 307.584 
L 396.322909 307.533322 
L 394.158545 307.533322 
z
" style="fill:#00ffff;stroke:#000000;stroke-linejoin:miter;stroke-width:0.5;"/>
   </g>
   <g id="patch_152">
    <path clip-path="url(#pab2d857695)" d="M 396.322909 307.584 
L 398.487273 307.584 
L 398.487273 307.482644 
L 396.322909 307.482644 
z
" style="fill:#00ffff;stroke:#000000;stroke-linejoin:miter;stroke-width:0.5;"/>
   </g>
   <g id="matplotlib.axis_1">
    <g id="xtick_1">
     <g id="line2d_1">
      <path clip-path="url(#pab2d857695)" d="M 77.863859 307.584 
L 77.863859 41.472 
" style="fill:none;stroke:#b0b0b0;stroke-linecap:square;stroke-width:0.8;"/>
     </g>
     <g id="line2d_2">
      <defs>
       <path d="M 0 0 
L 0 3.5 
" id="me8e8d5edd9" style="stroke:#000000;stroke-width:0.8;"/>
      </defs>
      <g>
       <use style="stroke:#000000;stroke-width:0.8;" x="77.863859" xlink:href="#me8e8d5edd9" y="307.584"/>
      </g>
     </g>
     <g id="text_1">
      <!-- 0 -->
      <defs>
       <path d="M 31.78125 66.40625 
Q 24.171875 66.40625 20.328125 58.90625 
Q 16.5 51.421875 16.5 36.375 
Q 16.5 21.390625 20.328125 13.890625 
Q 24.171875 6.390625 31.78125 6.390625 
Q 39.453125 6.390625 43.28125 13.890625 
Q 47.125 21.390625 47.125 36.375 
Q 47.125 51.421875 43.28125 58.90625 
Q 39.453125 66.40625 31.78125 66.40625 
z
M 31.78125 74.21875 
Q 44.046875 74.21875 50.515625 64.515625 
Q 56.984375 54.828125 56.984375 36.375 
Q 56.984375 17.96875 50.515625 8.265625 
Q 44.046875 -1.421875 31.78125 -1.421875 
Q 19.53125 -1.421875 13.0625 8.265625 
Q 6.59375 17.96875 6.59375 36.375 
Q 6.59375 54.828125 13.0625 64.515625 
Q 19.53125 74.21875 31.78125 74.21875 
z
" id="DejaVuSans-30"/>
      </defs>
      <g transform="translate(74.682609 322.182437)scale(0.1 -0.1)">
       <use xlink:href="#DejaVuSans-30"/>
      </g>
     </g>
    </g>
    <g id="xtick_2">
     <g id="line2d_3">
      <path clip-path="url(#pab2d857695)" d="M 135.084831 307.584 
L 135.084831 41.472 
" style="fill:none;stroke:#b0b0b0;stroke-linecap:square;stroke-width:0.8;"/>
     </g>
     <g id="line2d_4">
      <g>
       <use style="stroke:#000000;stroke-width:0.8;" x="135.084831" xlink:href="#me8e8d5edd9" y="307.584"/>
      </g>
     </g>
     <g id="text_2">
      <!-- 2 -->
      <defs>
       <path d="M 19.1875 8.296875 
L 53.609375 8.296875 
L 53.609375 0 
L 7.328125 0 
L 7.328125 8.296875 
Q 12.9375 14.109375 22.625 23.890625 
Q 32.328125 33.6875 34.8125 36.53125 
Q 39.546875 41.84375 41.421875 45.53125 
Q 43.3125 49.21875 43.3125 52.78125 
Q 43.3125 58.59375 39.234375 62.25 
Q 35.15625 65.921875 28.609375 65.921875 
Q 23.96875 65.921875 18.8125 64.3125 
Q 13.671875 62.703125 7.8125 59.421875 
L 7.8125 69.390625 
Q 13.765625 71.78125 18.9375 73 
Q 24.125 74.21875 28.421875 74.21875 
Q 39.75 74.21875 46.484375 68.546875 
Q 53.21875 62.890625 53.21875 53.421875 
Q 53.21875 48.921875 51.53125 44.890625 
Q 49.859375 40.875 45.40625 35.40625 
Q 44.1875 33.984375 37.640625 27.21875 
Q 31.109375 20.453125 19.1875 8.296875 
z
" id="DejaVuSans-32"/>
      </defs>
      <g transform="translate(131.903581 322.182437)scale(0.1 -0.1)">
       <use xlink:href="#DejaVuSans-32"/>
      </g>
     </g>
    </g>
    <g id="xtick_3">
     <g id="line2d_5">
      <path clip-path="url(#pab2d857695)" d="M 192.305804 307.584 
L 192.305804 41.472 
" style="fill:none;stroke:#b0b0b0;stroke-linecap:square;stroke-width:0.8;"/>
     </g>
     <g id="line2d_6">
      <g>
       <use style="stroke:#000000;stroke-width:0.8;" x="192.305804" xlink:href="#me8e8d5edd9" y="307.584"/>
      </g>
     </g>
     <g id="text_3">
      <!-- 4 -->
      <defs>
       <path d="M 37.796875 64.3125 
L 12.890625 25.390625 
L 37.796875 25.390625 
z
M 35.203125 72.90625 
L 47.609375 72.90625 
L 47.609375 25.390625 
L 58.015625 25.390625 
L 58.015625 17.1875 
L 47.609375 17.1875 
L 47.609375 0 
L 37.796875 0 
L 37.796875 17.1875 
L 4.890625 17.1875 
L 4.890625 26.703125 
z
" id="DejaVuSans-34"/>
      </defs>
      <g transform="translate(189.124554 322.182437)scale(0.1 -0.1)">
       <use xlink:href="#DejaVuSans-34"/>
      </g>
     </g>
    </g>
    <g id="xtick_4">
     <g id="line2d_7">
      <path clip-path="url(#pab2d857695)" d="M 249.526776 307.584 
L 249.526776 41.472 
" style="fill:none;stroke:#b0b0b0;stroke-linecap:square;stroke-width:0.8;"/>
     </g>
     <g id="line2d_8">
      <g>
       <use style="stroke:#000000;stroke-width:0.8;" x="249.526776" xlink:href="#me8e8d5edd9" y="307.584"/>
      </g>
     </g>
     <g id="text_4">
      <!-- 6 -->
      <defs>
       <path d="M 33.015625 40.375 
Q 26.375 40.375 22.484375 35.828125 
Q 18.609375 31.296875 18.609375 23.390625 
Q 18.609375 15.53125 22.484375 10.953125 
Q 26.375 6.390625 33.015625 6.390625 
Q 39.65625 6.390625 43.53125 10.953125 
Q 47.40625 15.53125 47.40625 23.390625 
Q 47.40625 31.296875 43.53125 35.828125 
Q 39.65625 40.375 33.015625 40.375 
z
M 52.59375 71.296875 
L 52.59375 62.3125 
Q 48.875 64.0625 45.09375 64.984375 
Q 41.3125 65.921875 37.59375 65.921875 
Q 27.828125 65.921875 22.671875 59.328125 
Q 17.53125 52.734375 16.796875 39.40625 
Q 19.671875 43.65625 24.015625 45.921875 
Q 28.375 48.1875 33.59375 48.1875 
Q 44.578125 48.1875 50.953125 41.515625 
Q 57.328125 34.859375 57.328125 23.390625 
Q 57.328125 12.15625 50.6875 5.359375 
Q 44.046875 -1.421875 33.015625 -1.421875 
Q 20.359375 -1.421875 13.671875 8.265625 
Q 6.984375 17.96875 6.984375 36.375 
Q 6.984375 53.65625 15.1875 63.9375 
Q 23.390625 74.21875 37.203125 74.21875 
Q 40.921875 74.21875 44.703125 73.484375 
Q 48.484375 72.75 52.59375 71.296875 
z
" id="DejaVuSans-36"/>
      </defs>
      <g transform="translate(246.345526 322.182437)scale(0.1 -0.1)">
       <use xlink:href="#DejaVuSans-36"/>
      </g>
     </g>
    </g>
    <g id="xtick_5">
     <g id="line2d_9">
      <path clip-path="url(#pab2d857695)" d="M 306.747749 307.584 
L 306.747749 41.472 
" style="fill:none;stroke:#b0b0b0;stroke-linecap:square;stroke-width:0.8;"/>
     </g>
     <g id="line2d_10">
      <g>
       <use style="stroke:#000000;stroke-width:0.8;" x="306.747749" xlink:href="#me8e8d5edd9" y="307.584"/>
      </g>
     </g>
     <g id="text_5">
      <!-- 8 -->
      <defs>
       <path d="M 31.78125 34.625 
Q 24.75 34.625 20.71875 30.859375 
Q 16.703125 27.09375 16.703125 20.515625 
Q 16.703125 13.921875 20.71875 10.15625 
Q 24.75 6.390625 31.78125 6.390625 
Q 38.8125 6.390625 42.859375 10.171875 
Q 46.921875 13.96875 46.921875 20.515625 
Q 46.921875 27.09375 42.890625 30.859375 
Q 38.875 34.625 31.78125 34.625 
z
M 21.921875 38.8125 
Q 15.578125 40.375 12.03125 44.71875 
Q 8.5 49.078125 8.5 55.328125 
Q 8.5 64.0625 14.71875 69.140625 
Q 20.953125 74.21875 31.78125 74.21875 
Q 42.671875 74.21875 48.875 69.140625 
Q 55.078125 64.0625 55.078125 55.328125 
Q 55.078125 49.078125 51.53125 44.71875 
Q 48 40.375 41.703125 38.8125 
Q 48.828125 37.15625 52.796875 32.3125 
Q 56.78125 27.484375 56.78125 20.515625 
Q 56.78125 9.90625 50.3125 4.234375 
Q 43.84375 -1.421875 31.78125 -1.421875 
Q 19.734375 -1.421875 13.25 4.234375 
Q 6.78125 9.90625 6.78125 20.515625 
Q 6.78125 27.484375 10.78125 32.3125 
Q 14.796875 37.15625 21.921875 38.8125 
z
M 18.3125 54.390625 
Q 18.3125 48.734375 21.84375 45.5625 
Q 25.390625 42.390625 31.78125 42.390625 
Q 38.140625 42.390625 41.71875 45.5625 
Q 45.3125 48.734375 45.3125 54.390625 
Q 45.3125 60.0625 41.71875 63.234375 
Q 38.140625 66.40625 31.78125 66.40625 
Q 25.390625 66.40625 21.84375 63.234375 
Q 18.3125 60.0625 18.3125 54.390625 
z
" id="DejaVuSans-38"/>
      </defs>
      <g transform="translate(303.566499 322.182437)scale(0.1 -0.1)">
       <use xlink:href="#DejaVuSans-38"/>
      </g>
     </g>
    </g>
    <g id="xtick_6">
     <g id="line2d_11">
      <path clip-path="url(#pab2d857695)" d="M 363.968721 307.584 
L 363.968721 41.472 
" style="fill:none;stroke:#b0b0b0;stroke-linecap:square;stroke-width:0.8;"/>
     </g>
     <g id="line2d_12">
      <g>
       <use style="stroke:#000000;stroke-width:0.8;" x="363.968721" xlink:href="#me8e8d5edd9" y="307.584"/>
      </g>
     </g>
     <g id="text_6">
      <!-- 10 -->
      <defs>
       <path d="M 12.40625 8.296875 
L 28.515625 8.296875 
L 28.515625 63.921875 
L 10.984375 60.40625 
L 10.984375 69.390625 
L 28.421875 72.90625 
L 38.28125 72.90625 
L 38.28125 8.296875 
L 54.390625 8.296875 
L 54.390625 0 
L 12.40625 0 
z
" id="DejaVuSans-31"/>
      </defs>
      <g transform="translate(357.606221 322.182437)scale(0.1 -0.1)">
       <use xlink:href="#DejaVuSans-31"/>
       <use x="63.623047" xlink:href="#DejaVuSans-30"/>
      </g>
     </g>
    </g>
    <g id="text_7">
     <!-- Log-robustness $R$ -->
     <defs>
      <path d="M 9.8125 72.90625 
L 19.671875 72.90625 
L 19.671875 8.296875 
L 55.171875 8.296875 
L 55.171875 0 
L 9.8125 0 
z
" id="DejaVuSans-4c"/>
      <path d="M 30.609375 48.390625 
Q 23.390625 48.390625 19.1875 42.75 
Q 14.984375 37.109375 14.984375 27.296875 
Q 14.984375 17.484375 19.15625 11.84375 
Q 23.34375 6.203125 30.609375 6.203125 
Q 37.796875 6.203125 41.984375 11.859375 
Q 46.1875 17.53125 46.1875 27.296875 
Q 46.1875 37.015625 41.984375 42.703125 
Q 37.796875 48.390625 30.609375 48.390625 
z
M 30.609375 56 
Q 42.328125 56 49.015625 48.375 
Q 55.71875 40.765625 55.71875 27.296875 
Q 55.71875 13.875 49.015625 6.21875 
Q 42.328125 -1.421875 30.609375 -1.421875 
Q 18.84375 -1.421875 12.171875 6.21875 
Q 5.515625 13.875 5.515625 27.296875 
Q 5.515625 40.765625 12.171875 48.375 
Q 18.84375 56 30.609375 56 
z
" id="DejaVuSans-6f"/>
      <path d="M 45.40625 27.984375 
Q 45.40625 37.75 41.375 43.109375 
Q 37.359375 48.484375 30.078125 48.484375 
Q 22.859375 48.484375 18.828125 43.109375 
Q 14.796875 37.75 14.796875 27.984375 
Q 14.796875 18.265625 18.828125 12.890625 
Q 22.859375 7.515625 30.078125 7.515625 
Q 37.359375 7.515625 41.375 12.890625 
Q 45.40625 18.265625 45.40625 27.984375 
z
M 54.390625 6.78125 
Q 54.390625 -7.171875 48.1875 -13.984375 
Q 42 -20.796875 29.203125 -20.796875 
Q 24.46875 -20.796875 20.265625 -20.09375 
Q 16.0625 -19.390625 12.109375 -17.921875 
L 12.109375 -9.1875 
Q 16.0625 -11.328125 19.921875 -12.34375 
Q 23.78125 -13.375 27.78125 -13.375 
Q 36.625 -13.375 41.015625 -8.765625 
Q 45.40625 -4.15625 45.40625 5.171875 
L 45.40625 9.625 
Q 42.625 4.78125 38.28125 2.390625 
Q 33.9375 0 27.875 0 
Q 17.828125 0 11.671875 7.65625 
Q 5.515625 15.328125 5.515625 27.984375 
Q 5.515625 40.671875 11.671875 48.328125 
Q 17.828125 56 27.875 56 
Q 33.9375 56 38.28125 53.609375 
Q 42.625 51.21875 45.40625 46.390625 
L 45.40625 54.6875 
L 54.390625 54.6875 
z
" id="DejaVuSans-67"/>
      <path d="M 4.890625 31.390625 
L 31.203125 31.390625 
L 31.203125 23.390625 
L 4.890625 23.390625 
z
" id="DejaVuSans-2d"/>
      <path d="M 41.109375 46.296875 
Q 39.59375 47.171875 37.8125 47.578125 
Q 36.03125 48 33.890625 48 
Q 26.265625 48 22.1875 43.046875 
Q 18.109375 38.09375 18.109375 28.8125 
L 18.109375 0 
L 9.078125 0 
L 9.078125 54.6875 
L 18.109375 54.6875 
L 18.109375 46.1875 
Q 20.953125 51.171875 25.484375 53.578125 
Q 30.03125 56 36.53125 56 
Q 37.453125 56 38.578125 55.875 
Q 39.703125 55.765625 41.0625 55.515625 
z
" id="DejaVuSans-72"/>
      <path d="M 48.6875 27.296875 
Q 48.6875 37.203125 44.609375 42.84375 
Q 40.53125 48.484375 33.40625 48.484375 
Q 26.265625 48.484375 22.1875 42.84375 
Q 18.109375 37.203125 18.109375 27.296875 
Q 18.109375 17.390625 22.1875 11.75 
Q 26.265625 6.109375 33.40625 6.109375 
Q 40.53125 6.109375 44.609375 11.75 
Q 48.6875 17.390625 48.6875 27.296875 
z
M 18.109375 46.390625 
Q 20.953125 51.265625 25.265625 53.625 
Q 29.59375 56 35.59375 56 
Q 45.5625 56 51.78125 48.09375 
Q 58.015625 40.1875 58.015625 27.296875 
Q 58.015625 14.40625 51.78125 6.484375 
Q 45.5625 -1.421875 35.59375 -1.421875 
Q 29.59375 -1.421875 25.265625 0.953125 
Q 20.953125 3.328125 18.109375 8.203125 
L 18.109375 0 
L 9.078125 0 
L 9.078125 75.984375 
L 18.109375 75.984375 
z
" id="DejaVuSans-62"/>
      <path d="M 8.5 21.578125 
L 8.5 54.6875 
L 17.484375 54.6875 
L 17.484375 21.921875 
Q 17.484375 14.15625 20.5 10.265625 
Q 23.53125 6.390625 29.59375 6.390625 
Q 36.859375 6.390625 41.078125 11.03125 
Q 45.3125 15.671875 45.3125 23.6875 
L 45.3125 54.6875 
L 54.296875 54.6875 
L 54.296875 0 
L 45.3125 0 
L 45.3125 8.40625 
Q 42.046875 3.421875 37.71875 1 
Q 33.40625 -1.421875 27.6875 -1.421875 
Q 18.265625 -1.421875 13.375 4.4375 
Q 8.5 10.296875 8.5 21.578125 
z
M 31.109375 56 
z
" id="DejaVuSans-75"/>
      <path d="M 44.28125 53.078125 
L 44.28125 44.578125 
Q 40.484375 46.53125 36.375 47.5 
Q 32.28125 48.484375 27.875 48.484375 
Q 21.1875 48.484375 17.84375 46.4375 
Q 14.5 44.390625 14.5 40.28125 
Q 14.5 37.15625 16.890625 35.375 
Q 19.28125 33.59375 26.515625 31.984375 
L 29.59375 31.296875 
Q 39.15625 29.25 43.1875 25.515625 
Q 47.21875 21.78125 47.21875 15.09375 
Q 47.21875 7.46875 41.1875 3.015625 
Q 35.15625 -1.421875 24.609375 -1.421875 
Q 20.21875 -1.421875 15.453125 -0.5625 
Q 10.6875 0.296875 5.421875 2 
L 5.421875 11.28125 
Q 10.40625 8.6875 15.234375 7.390625 
Q 20.0625 6.109375 24.8125 6.109375 
Q 31.15625 6.109375 34.5625 8.28125 
Q 37.984375 10.453125 37.984375 14.40625 
Q 37.984375 18.0625 35.515625 20.015625 
Q 33.0625 21.96875 24.703125 23.78125 
L 21.578125 24.515625 
Q 13.234375 26.265625 9.515625 29.90625 
Q 5.8125 33.546875 5.8125 39.890625 
Q 5.8125 47.609375 11.28125 51.796875 
Q 16.75 56 26.8125 56 
Q 31.78125 56 36.171875 55.265625 
Q 40.578125 54.546875 44.28125 53.078125 
z
" id="DejaVuSans-73"/>
      <path d="M 18.3125 70.21875 
L 18.3125 54.6875 
L 36.8125 54.6875 
L 36.8125 47.703125 
L 18.3125 47.703125 
L 18.3125 18.015625 
Q 18.3125 11.328125 20.140625 9.421875 
Q 21.96875 7.515625 27.59375 7.515625 
L 36.8125 7.515625 
L 36.8125 0 
L 27.59375 0 
Q 17.1875 0 13.234375 3.875 
Q 9.28125 7.765625 9.28125 18.015625 
L 9.28125 47.703125 
L 2.6875 47.703125 
L 2.6875 54.6875 
L 9.28125 54.6875 
L 9.28125 70.21875 
z
" id="DejaVuSans-74"/>
      <path d="M 54.890625 33.015625 
L 54.890625 0 
L 45.90625 0 
L 45.90625 32.71875 
Q 45.90625 40.484375 42.875 44.328125 
Q 39.84375 48.1875 33.796875 48.1875 
Q 26.515625 48.1875 22.3125 43.546875 
Q 18.109375 38.921875 18.109375 30.90625 
L 18.109375 0 
L 9.078125 0 
L 9.078125 54.6875 
L 18.109375 54.6875 
L 18.109375 46.1875 
Q 21.34375 51.125 25.703125 53.5625 
Q 30.078125 56 35.796875 56 
Q 45.21875 56 50.046875 50.171875 
Q 54.890625 44.34375 54.890625 33.015625 
z
" id="DejaVuSans-6e"/>
      <path d="M 56.203125 29.59375 
L 56.203125 25.203125 
L 14.890625 25.203125 
Q 15.484375 15.921875 20.484375 11.0625 
Q 25.484375 6.203125 34.421875 6.203125 
Q 39.59375 6.203125 44.453125 7.46875 
Q 49.3125 8.734375 54.109375 11.28125 
L 54.109375 2.78125 
Q 49.265625 0.734375 44.1875 -0.34375 
Q 39.109375 -1.421875 33.890625 -1.421875 
Q 20.796875 -1.421875 13.15625 6.1875 
Q 5.515625 13.8125 5.515625 26.8125 
Q 5.515625 40.234375 12.765625 48.109375 
Q 20.015625 56 32.328125 56 
Q 43.359375 56 49.78125 48.890625 
Q 56.203125 41.796875 56.203125 29.59375 
z
M 47.21875 32.234375 
Q 47.125 39.59375 43.09375 43.984375 
Q 39.0625 48.390625 32.421875 48.390625 
Q 24.90625 48.390625 20.390625 44.140625 
Q 15.875 39.890625 15.1875 32.171875 
z
" id="DejaVuSans-65"/>
      <path id="DejaVuSans-20"/>
      <path d="M 25.203125 64.796875 
L 20.21875 38.921875 
L 32.90625 38.921875 
Q 40.375 38.921875 44.984375 43.046875 
Q 49.609375 47.171875 49.609375 53.8125 
Q 49.609375 59.125 46.5 61.953125 
Q 43.40625 64.796875 37.59375 64.796875 
z
M 43.3125 35.015625 
Q 46.4375 34.28125 48.515625 31.390625 
Q 50.59375 28.515625 53.328125 19.921875 
L 59.515625 0 
L 49.125 0 
L 43.40625 18.703125 
Q 41.21875 25.921875 38.328125 28.359375 
Q 35.453125 30.8125 29.5 30.8125 
L 18.609375 30.8125 
L 12.59375 0 
L 2.6875 0 
L 16.890625 72.90625 
L 39.109375 72.90625 
Q 49.21875 72.90625 54.609375 68.328125 
Q 60.015625 63.765625 60.015625 55.171875 
Q 60.015625 47.5625 55.421875 41.984375 
Q 50.828125 36.421875 43.3125 35.015625 
z
" id="DejaVuSans-Oblique-52"/>
     </defs>
     <g transform="translate(175.4 338.902125)scale(0.14 -0.14)">
      <use transform="translate(0 0.015625)" xlink:href="#DejaVuSans-4c"/>
      <use transform="translate(55.712891 0.015625)" xlink:href="#DejaVuSans-6f"/>
      <use transform="translate(116.894531 0.015625)" xlink:href="#DejaVuSans-67"/>
      <use transform="translate(180.371094 0.015625)" xlink:href="#DejaVuSans-2d"/>
      <use transform="translate(216.455078 0.015625)" xlink:href="#DejaVuSans-72"/>
      <use transform="translate(257.568359 0.015625)" xlink:href="#DejaVuSans-6f"/>
      <use transform="translate(318.75 0.015625)" xlink:href="#DejaVuSans-62"/>
      <use transform="translate(382.226562 0.015625)" xlink:href="#DejaVuSans-75"/>
      <use transform="translate(445.605469 0.015625)" xlink:href="#DejaVuSans-73"/>
      <use transform="translate(497.705078 0.015625)" xlink:href="#DejaVuSans-74"/>
      <use transform="translate(536.914062 0.015625)" xlink:href="#DejaVuSans-6e"/>
      <use transform="translate(600.292969 0.015625)" xlink:href="#DejaVuSans-65"/>
      <use transform="translate(661.816406 0.015625)" xlink:href="#DejaVuSans-73"/>
      <use transform="translate(713.916016 0.015625)" xlink:href="#DejaVuSans-73"/>
      <use transform="translate(766.015625 0.015625)" xlink:href="#DejaVuSans-20"/>
      <use transform="translate(797.802734 0.015625)" xlink:href="#DejaVuSans-Oblique-52"/>
     </g>
    </g>
   </g>
   <g id="matplotlib.axis_2">
    <g id="ytick_1">
     <g id="line2d_13">
      <path clip-path="url(#pab2d857695)" d="M 57.6 307.584 
L 414.72 307.584 
" style="fill:none;stroke:#b0b0b0;stroke-linecap:square;stroke-width:0.8;"/>
     </g>
     <g id="line2d_14">
      <defs>
       <path d="M 0 0 
L -3.5 0 
" id="m138419ea35" style="stroke:#000000;stroke-width:0.8;"/>
      </defs>
      <g>
       <use style="stroke:#000000;stroke-width:0.8;" x="57.6" xlink:href="#m138419ea35" y="307.584"/>
      </g>
     </g>
     <g id="text_8">
      <!-- 0.0 -->
      <defs>
       <path d="M 10.6875 12.40625 
L 21 12.40625 
L 21 0 
L 10.6875 0 
z
" id="DejaVuSans-2e"/>
      </defs>
      <g transform="translate(34.696875 311.383219)scale(0.1 -0.1)">
       <use xlink:href="#DejaVuSans-30"/>
       <use x="63.623047" xlink:href="#DejaVuSans-2e"/>
       <use x="95.410156" xlink:href="#DejaVuSans-30"/>
      </g>
     </g>
    </g>
    <g id="ytick_2">
     <g id="line2d_15">
      <path clip-path="url(#pab2d857695)" d="M 57.6 269.246544 
L 414.72 269.246544 
" style="fill:none;stroke:#b0b0b0;stroke-linecap:square;stroke-width:0.8;"/>
     </g>
     <g id="line2d_16">
      <g>
       <use style="stroke:#000000;stroke-width:0.8;" x="57.6" xlink:href="#m138419ea35" y="269.246544"/>
      </g>
     </g>
     <g id="text_9">
      <!-- 0.1 -->
      <g transform="translate(34.696875 273.045762)scale(0.1 -0.1)">
       <use xlink:href="#DejaVuSans-30"/>
       <use x="63.623047" xlink:href="#DejaVuSans-2e"/>
       <use x="95.410156" xlink:href="#DejaVuSans-31"/>
      </g>
     </g>
    </g>
    <g id="ytick_3">
     <g id="line2d_17">
      <path clip-path="url(#pab2d857695)" d="M 57.6 230.909087 
L 414.72 230.909087 
" style="fill:none;stroke:#b0b0b0;stroke-linecap:square;stroke-width:0.8;"/>
     </g>
     <g id="line2d_18">
      <g>
       <use style="stroke:#000000;stroke-width:0.8;" x="57.6" xlink:href="#m138419ea35" y="230.909087"/>
      </g>
     </g>
     <g id="text_10">
      <!-- 0.2 -->
      <g transform="translate(34.696875 234.708306)scale(0.1 -0.1)">
       <use xlink:href="#DejaVuSans-30"/>
       <use x="63.623047" xlink:href="#DejaVuSans-2e"/>
       <use x="95.410156" xlink:href="#DejaVuSans-32"/>
      </g>
     </g>
    </g>
    <g id="ytick_4">
     <g id="line2d_19">
      <path clip-path="url(#pab2d857695)" d="M 57.6 192.571631 
L 414.72 192.571631 
" style="fill:none;stroke:#b0b0b0;stroke-linecap:square;stroke-width:0.8;"/>
     </g>
     <g id="line2d_20">
      <g>
       <use style="stroke:#000000;stroke-width:0.8;" x="57.6" xlink:href="#m138419ea35" y="192.571631"/>
      </g>
     </g>
     <g id="text_11">
      <!-- 0.3 -->
      <defs>
       <path d="M 40.578125 39.3125 
Q 47.65625 37.796875 51.625 33 
Q 55.609375 28.21875 55.609375 21.1875 
Q 55.609375 10.40625 48.1875 4.484375 
Q 40.765625 -1.421875 27.09375 -1.421875 
Q 22.515625 -1.421875 17.65625 -0.515625 
Q 12.796875 0.390625 7.625 2.203125 
L 7.625 11.71875 
Q 11.71875 9.328125 16.59375 8.109375 
Q 21.484375 6.890625 26.8125 6.890625 
Q 36.078125 6.890625 40.9375 10.546875 
Q 45.796875 14.203125 45.796875 21.1875 
Q 45.796875 27.640625 41.28125 31.265625 
Q 36.765625 34.90625 28.71875 34.90625 
L 20.21875 34.90625 
L 20.21875 43.015625 
L 29.109375 43.015625 
Q 36.375 43.015625 40.234375 45.921875 
Q 44.09375 48.828125 44.09375 54.296875 
Q 44.09375 59.90625 40.109375 62.90625 
Q 36.140625 65.921875 28.71875 65.921875 
Q 24.65625 65.921875 20.015625 65.03125 
Q 15.375 64.15625 9.8125 62.3125 
L 9.8125 71.09375 
Q 15.4375 72.65625 20.34375 73.4375 
Q 25.25 74.21875 29.59375 74.21875 
Q 40.828125 74.21875 47.359375 69.109375 
Q 53.90625 64.015625 53.90625 55.328125 
Q 53.90625 49.265625 50.4375 45.09375 
Q 46.96875 40.921875 40.578125 39.3125 
z
" id="DejaVuSans-33"/>
      </defs>
      <g transform="translate(34.696875 196.370849)scale(0.1 -0.1)">
       <use xlink:href="#DejaVuSans-30"/>
       <use x="63.623047" xlink:href="#DejaVuSans-2e"/>
       <use x="95.410156" xlink:href="#DejaVuSans-33"/>
      </g>
     </g>
    </g>
    <g id="ytick_5">
     <g id="line2d_21">
      <path clip-path="url(#pab2d857695)" d="M 57.6 154.234174 
L 414.72 154.234174 
" style="fill:none;stroke:#b0b0b0;stroke-linecap:square;stroke-width:0.8;"/>
     </g>
     <g id="line2d_22">
      <g>
       <use style="stroke:#000000;stroke-width:0.8;" x="57.6" xlink:href="#m138419ea35" y="154.234174"/>
      </g>
     </g>
     <g id="text_12">
      <!-- 0.4 -->
      <g transform="translate(34.696875 158.033393)scale(0.1 -0.1)">
       <use xlink:href="#DejaVuSans-30"/>
       <use x="63.623047" xlink:href="#DejaVuSans-2e"/>
       <use x="95.410156" xlink:href="#DejaVuSans-34"/>
      </g>
     </g>
    </g>
    <g id="ytick_6">
     <g id="line2d_23">
      <path clip-path="url(#pab2d857695)" d="M 57.6 115.896718 
L 414.72 115.896718 
" style="fill:none;stroke:#b0b0b0;stroke-linecap:square;stroke-width:0.8;"/>
     </g>
     <g id="line2d_24">
      <g>
       <use style="stroke:#000000;stroke-width:0.8;" x="57.6" xlink:href="#m138419ea35" y="115.896718"/>
      </g>
     </g>
     <g id="text_13">
      <!-- 0.5 -->
      <defs>
       <path d="M 10.796875 72.90625 
L 49.515625 72.90625 
L 49.515625 64.59375 
L 19.828125 64.59375 
L 19.828125 46.734375 
Q 21.96875 47.46875 24.109375 47.828125 
Q 26.265625 48.1875 28.421875 48.1875 
Q 40.625 48.1875 47.75 41.5 
Q 54.890625 34.8125 54.890625 23.390625 
Q 54.890625 11.625 47.5625 5.09375 
Q 40.234375 -1.421875 26.90625 -1.421875 
Q 22.3125 -1.421875 17.546875 -0.640625 
Q 12.796875 0.140625 7.71875 1.703125 
L 7.71875 11.625 
Q 12.109375 9.234375 16.796875 8.0625 
Q 21.484375 6.890625 26.703125 6.890625 
Q 35.15625 6.890625 40.078125 11.328125 
Q 45.015625 15.765625 45.015625 23.390625 
Q 45.015625 31 40.078125 35.4375 
Q 35.15625 39.890625 26.703125 39.890625 
Q 22.75 39.890625 18.8125 39.015625 
Q 14.890625 38.140625 10.796875 36.28125 
z
" id="DejaVuSans-35"/>
      </defs>
      <g transform="translate(34.696875 119.695936)scale(0.1 -0.1)">
       <use xlink:href="#DejaVuSans-30"/>
       <use x="63.623047" xlink:href="#DejaVuSans-2e"/>
       <use x="95.410156" xlink:href="#DejaVuSans-35"/>
      </g>
     </g>
    </g>
    <g id="ytick_7">
     <g id="line2d_25">
      <path clip-path="url(#pab2d857695)" d="M 57.6 77.559261 
L 414.72 77.559261 
" style="fill:none;stroke:#b0b0b0;stroke-linecap:square;stroke-width:0.8;"/>
     </g>
     <g id="line2d_26">
      <g>
       <use style="stroke:#000000;stroke-width:0.8;" x="57.6" xlink:href="#m138419ea35" y="77.559261"/>
      </g>
     </g>
     <g id="text_14">
      <!-- 0.6 -->
      <g transform="translate(34.696875 81.35848)scale(0.1 -0.1)">
       <use xlink:href="#DejaVuSans-30"/>
       <use x="63.623047" xlink:href="#DejaVuSans-2e"/>
       <use x="95.410156" xlink:href="#DejaVuSans-36"/>
      </g>
     </g>
    </g>
    <g id="text_15">
     <!-- Probability Density -->
     <defs>
      <path d="M 19.671875 64.796875 
L 19.671875 37.40625 
L 32.078125 37.40625 
Q 38.96875 37.40625 42.71875 40.96875 
Q 46.484375 44.53125 46.484375 51.125 
Q 46.484375 57.671875 42.71875 61.234375 
Q 38.96875 64.796875 32.078125 64.796875 
z
M 9.8125 72.90625 
L 32.078125 72.90625 
Q 44.34375 72.90625 50.609375 67.359375 
Q 56.890625 61.8125 56.890625 51.125 
Q 56.890625 40.328125 50.609375 34.8125 
Q 44.34375 29.296875 32.078125 29.296875 
L 19.671875 29.296875 
L 19.671875 0 
L 9.8125 0 
z
" id="DejaVuSans-50"/>
      <path d="M 34.28125 27.484375 
Q 23.390625 27.484375 19.1875 25 
Q 14.984375 22.515625 14.984375 16.5 
Q 14.984375 11.71875 18.140625 8.90625 
Q 21.296875 6.109375 26.703125 6.109375 
Q 34.1875 6.109375 38.703125 11.40625 
Q 43.21875 16.703125 43.21875 25.484375 
L 43.21875 27.484375 
z
M 52.203125 31.203125 
L 52.203125 0 
L 43.21875 0 
L 43.21875 8.296875 
Q 40.140625 3.328125 35.546875 0.953125 
Q 30.953125 -1.421875 24.3125 -1.421875 
Q 15.921875 -1.421875 10.953125 3.296875 
Q 6 8.015625 6 15.921875 
Q 6 25.140625 12.171875 29.828125 
Q 18.359375 34.515625 30.609375 34.515625 
L 43.21875 34.515625 
L 43.21875 35.40625 
Q 43.21875 41.609375 39.140625 45 
Q 35.0625 48.390625 27.6875 48.390625 
Q 23 48.390625 18.546875 47.265625 
Q 14.109375 46.140625 10.015625 43.890625 
L 10.015625 52.203125 
Q 14.9375 54.109375 19.578125 55.046875 
Q 24.21875 56 28.609375 56 
Q 40.484375 56 46.34375 49.84375 
Q 52.203125 43.703125 52.203125 31.203125 
z
" id="DejaVuSans-61"/>
      <path d="M 9.421875 54.6875 
L 18.40625 54.6875 
L 18.40625 0 
L 9.421875 0 
z
M 9.421875 75.984375 
L 18.40625 75.984375 
L 18.40625 64.59375 
L 9.421875 64.59375 
z
" id="DejaVuSans-69"/>
      <path d="M 9.421875 75.984375 
L 18.40625 75.984375 
L 18.40625 0 
L 9.421875 0 
z
" id="DejaVuSans-6c"/>
      <path d="M 32.171875 -5.078125 
Q 28.375 -14.84375 24.75 -17.8125 
Q 21.140625 -20.796875 15.09375 -20.796875 
L 7.90625 -20.796875 
L 7.90625 -13.28125 
L 13.1875 -13.28125 
Q 16.890625 -13.28125 18.9375 -11.515625 
Q 21 -9.765625 23.484375 -3.21875 
L 25.09375 0.875 
L 2.984375 54.6875 
L 12.5 54.6875 
L 29.59375 11.921875 
L 46.6875 54.6875 
L 56.203125 54.6875 
z
" id="DejaVuSans-79"/>
      <path d="M 19.671875 64.796875 
L 19.671875 8.109375 
L 31.59375 8.109375 
Q 46.6875 8.109375 53.6875 14.9375 
Q 60.6875 21.78125 60.6875 36.53125 
Q 60.6875 51.171875 53.6875 57.984375 
Q 46.6875 64.796875 31.59375 64.796875 
z
M 9.8125 72.90625 
L 30.078125 72.90625 
Q 51.265625 72.90625 61.171875 64.09375 
Q 71.09375 55.28125 71.09375 36.53125 
Q 71.09375 17.671875 61.125 8.828125 
Q 51.171875 0 30.078125 0 
L 9.8125 0 
z
" id="DejaVuSans-44"/>
     </defs>
     <g transform="translate(27.785312 240.641906)rotate(-90)scale(0.14 -0.14)">
      <use xlink:href="#DejaVuSans-50"/>
      <use x="60.287109" xlink:href="#DejaVuSans-72"/>
      <use x="101.369141" xlink:href="#DejaVuSans-6f"/>
      <use x="162.550781" xlink:href="#DejaVuSans-62"/>
      <use x="226.027344" xlink:href="#DejaVuSans-61"/>
      <use x="287.306641" xlink:href="#DejaVuSans-62"/>
      <use x="350.783203" xlink:href="#DejaVuSans-69"/>
      <use x="378.566406" xlink:href="#DejaVuSans-6c"/>
      <use x="406.349609" xlink:href="#DejaVuSans-69"/>
      <use x="434.132812" xlink:href="#DejaVuSans-74"/>
      <use x="473.341797" xlink:href="#DejaVuSans-79"/>
      <use x="532.521484" xlink:href="#DejaVuSans-20"/>
      <use x="564.308594" xlink:href="#DejaVuSans-44"/>
      <use x="641.310547" xlink:href="#DejaVuSans-65"/>
      <use x="702.833984" xlink:href="#DejaVuSans-6e"/>
      <use x="766.212891" xlink:href="#DejaVuSans-73"/>
      <use x="818.3125" xlink:href="#DejaVuSans-69"/>
      <use x="846.095703" xlink:href="#DejaVuSans-74"/>
      <use x="885.304688" xlink:href="#DejaVuSans-79"/>
     </g>
    </g>
   </g>
   <g id="patch_153">
    <path d="M 57.6 307.584 
L 57.6 41.472 
" style="fill:none;stroke:#000000;stroke-linecap:square;stroke-linejoin:miter;stroke-width:0.8;"/>
   </g>
   <g id="patch_154">
    <path d="M 414.72 307.584 
L 414.72 41.472 
" style="fill:none;stroke:#000000;stroke-linecap:square;stroke-linejoin:miter;stroke-width:0.8;"/>
   </g>
   <g id="patch_155">
    <path d="M 57.6 307.584 
L 414.72 307.584 
" style="fill:none;stroke:#000000;stroke-linecap:square;stroke-linejoin:miter;stroke-width:0.8;"/>
   </g>
   <g id="patch_156">
    <path d="M 57.6 41.472 
L 414.72 41.472 
" style="fill:none;stroke:#000000;stroke-linecap:square;stroke-linejoin:miter;stroke-width:0.8;"/>
   </g>
   <g id="text_16">
    <g id="patch_157">
     <path d="M 65.16 72.453375 
L 252.28125 72.453375 
L 252.28125 52.79775 
L 65.16 52.79775 
z
" style="fill:#ffffff;"/>
    </g>
    <!-- 07-Sep-18_15-07-42_30.rnum -->
    <defs>
     <path d="M 8.203125 72.90625 
L 55.078125 72.90625 
L 55.078125 68.703125 
L 28.609375 0 
L 18.3125 0 
L 43.21875 64.59375 
L 8.203125 64.59375 
z
" id="DejaVuSans-37"/>
     <path d="M 53.515625 70.515625 
L 53.515625 60.890625 
Q 47.90625 63.578125 42.921875 64.890625 
Q 37.9375 66.21875 33.296875 66.21875 
Q 25.25 66.21875 20.875 63.09375 
Q 16.5 59.96875 16.5 54.203125 
Q 16.5 49.359375 19.40625 46.890625 
Q 22.3125 44.4375 30.421875 42.921875 
L 36.375 41.703125 
Q 47.40625 39.59375 52.65625 34.296875 
Q 57.90625 29 57.90625 20.125 
Q 57.90625 9.515625 50.796875 4.046875 
Q 43.703125 -1.421875 29.984375 -1.421875 
Q 24.8125 -1.421875 18.96875 -0.25 
Q 13.140625 0.921875 6.890625 3.21875 
L 6.890625 13.375 
Q 12.890625 10.015625 18.65625 8.296875 
Q 24.421875 6.59375 29.984375 6.59375 
Q 38.421875 6.59375 43.015625 9.90625 
Q 47.609375 13.234375 47.609375 19.390625 
Q 47.609375 24.75 44.3125 27.78125 
Q 41.015625 30.8125 33.5 32.328125 
L 27.484375 33.5 
Q 16.453125 35.6875 11.515625 40.375 
Q 6.59375 45.0625 6.59375 53.421875 
Q 6.59375 63.09375 13.40625 68.65625 
Q 20.21875 74.21875 32.171875 74.21875 
Q 37.3125 74.21875 42.625 73.28125 
Q 47.953125 72.359375 53.515625 70.515625 
z
" id="DejaVuSans-53"/>
     <path d="M 18.109375 8.203125 
L 18.109375 -20.796875 
L 9.078125 -20.796875 
L 9.078125 54.6875 
L 18.109375 54.6875 
L 18.109375 46.390625 
Q 20.953125 51.265625 25.265625 53.625 
Q 29.59375 56 35.59375 56 
Q 45.5625 56 51.78125 48.09375 
Q 58.015625 40.1875 58.015625 27.296875 
Q 58.015625 14.40625 51.78125 6.484375 
Q 45.5625 -1.421875 35.59375 -1.421875 
Q 29.59375 -1.421875 25.265625 0.953125 
Q 20.953125 3.328125 18.109375 8.203125 
z
M 48.6875 27.296875 
Q 48.6875 37.203125 44.609375 42.84375 
Q 40.53125 48.484375 33.40625 48.484375 
Q 26.265625 48.484375 22.1875 42.84375 
Q 18.109375 37.203125 18.109375 27.296875 
Q 18.109375 17.390625 22.1875 11.75 
Q 26.265625 6.109375 33.40625 6.109375 
Q 40.53125 6.109375 44.609375 11.75 
Q 48.6875 17.390625 48.6875 27.296875 
z
" id="DejaVuSans-70"/>
     <path d="M 50.984375 -16.609375 
L 50.984375 -23.578125 
L -0.984375 -23.578125 
L -0.984375 -16.609375 
z
" id="DejaVuSans-5f"/>
     <path d="M 52 44.1875 
Q 55.375 50.25 60.0625 53.125 
Q 64.75 56 71.09375 56 
Q 79.640625 56 84.28125 50.015625 
Q 88.921875 44.046875 88.921875 33.015625 
L 88.921875 0 
L 79.890625 0 
L 79.890625 32.71875 
Q 79.890625 40.578125 77.09375 44.375 
Q 74.3125 48.1875 68.609375 48.1875 
Q 61.625 48.1875 57.5625 43.546875 
Q 53.515625 38.921875 53.515625 30.90625 
L 53.515625 0 
L 44.484375 0 
L 44.484375 32.71875 
Q 44.484375 40.625 41.703125 44.40625 
Q 38.921875 48.1875 33.109375 48.1875 
Q 26.21875 48.1875 22.15625 43.53125 
Q 18.109375 38.875 18.109375 30.90625 
L 18.109375 0 
L 9.078125 0 
L 9.078125 54.6875 
L 18.109375 54.6875 
L 18.109375 46.1875 
Q 21.1875 51.21875 25.484375 53.609375 
Q 29.78125 56 35.6875 56 
Q 41.65625 56 45.828125 52.96875 
Q 50 49.953125 52 44.1875 
z
" id="DejaVuSans-6d"/>
    </defs>
    <g transform="translate(69.12 65.664)scale(0.12 -0.12)">
     <use xlink:href="#DejaVuSans-30"/>
     <use x="63.623047" xlink:href="#DejaVuSans-37"/>
     <use x="127.246094" xlink:href="#DejaVuSans-2d"/>
     <use x="163.330078" xlink:href="#DejaVuSans-53"/>
     <use x="226.806641" xlink:href="#DejaVuSans-65"/>
     <use x="288.330078" xlink:href="#DejaVuSans-70"/>
     <use x="351.806641" xlink:href="#DejaVuSans-2d"/>
     <use x="387.890625" xlink:href="#DejaVuSans-31"/>
     <use x="451.513672" xlink:href="#DejaVuSans-38"/>
     <use x="515.136719" xlink:href="#DejaVuSans-5f"/>
     <use x="565.136719" xlink:href="#DejaVuSans-31"/>
     <use x="628.759766" xlink:href="#DejaVuSans-35"/>
     <use x="692.382812" xlink:href="#DejaVuSans-2d"/>
     <use x="728.466797" xlink:href="#DejaVuSans-30"/>
     <use x="792.089844" xlink:href="#DejaVuSans-37"/>
     <use x="855.712891" xlink:href="#DejaVuSans-2d"/>
     <use x="891.796875" xlink:href="#DejaVuSans-34"/>
     <use x="955.419922" xlink:href="#DejaVuSans-32"/>
     <use x="1019.042969" xlink:href="#DejaVuSans-5f"/>
     <use x="1069.042969" xlink:href="#DejaVuSans-33"/>
     <use x="1132.666016" xlink:href="#DejaVuSans-30"/>
     <use x="1196.289062" xlink:href="#DejaVuSans-2e"/>
     <use x="1228.076172" xlink:href="#DejaVuSans-72"/>
     <use x="1269.173828" xlink:href="#DejaVuSans-6e"/>
     <use x="1332.552734" xlink:href="#DejaVuSans-75"/>
     <use x="1395.931641" xlink:href="#DejaVuSans-6d"/>
    </g>
   </g>
   <g id="text_17">
    <!-- Numerical Distribution of $R$ -->
    <defs>
     <path d="M 9.8125 72.90625 
L 23.09375 72.90625 
L 55.421875 11.921875 
L 55.421875 72.90625 
L 64.984375 72.90625 
L 64.984375 0 
L 51.703125 0 
L 19.390625 60.984375 
L 19.390625 0 
L 9.8125 0 
z
" id="DejaVuSans-4e"/>
     <path d="M 48.78125 52.59375 
L 48.78125 44.1875 
Q 44.96875 46.296875 41.140625 47.34375 
Q 37.3125 48.390625 33.40625 48.390625 
Q 24.65625 48.390625 19.8125 42.84375 
Q 14.984375 37.3125 14.984375 27.296875 
Q 14.984375 17.28125 19.8125 11.734375 
Q 24.65625 6.203125 33.40625 6.203125 
Q 37.3125 6.203125 41.140625 7.25 
Q 44.96875 8.296875 48.78125 10.40625 
L 48.78125 2.09375 
Q 45.015625 0.34375 40.984375 -0.53125 
Q 36.96875 -1.421875 32.421875 -1.421875 
Q 20.0625 -1.421875 12.78125 6.34375 
Q 5.515625 14.109375 5.515625 27.296875 
Q 5.515625 40.671875 12.859375 48.328125 
Q 20.21875 56 33.015625 56 
Q 37.15625 56 41.109375 55.140625 
Q 45.0625 54.296875 48.78125 52.59375 
z
" id="DejaVuSans-63"/>
     <path d="M 37.109375 75.984375 
L 37.109375 68.5 
L 28.515625 68.5 
Q 23.6875 68.5 21.796875 66.546875 
Q 19.921875 64.59375 19.921875 59.515625 
L 19.921875 54.6875 
L 34.71875 54.6875 
L 34.71875 47.703125 
L 19.921875 47.703125 
L 19.921875 0 
L 10.890625 0 
L 10.890625 47.703125 
L 2.296875 47.703125 
L 2.296875 54.6875 
L 10.890625 54.6875 
L 10.890625 58.5 
Q 10.890625 67.625 15.140625 71.796875 
Q 19.390625 75.984375 28.609375 75.984375 
z
" id="DejaVuSans-66"/>
    </defs>
    <g transform="translate(127.76 35.472)scale(0.16 -0.16)">
     <use transform="translate(0 0.015625)" xlink:href="#DejaVuSans-4e"/>
     <use transform="translate(74.804688 0.015625)" xlink:href="#DejaVuSans-75"/>
     <use transform="translate(138.183594 0.015625)" xlink:href="#DejaVuSans-6d"/>
     <use transform="translate(235.595703 0.015625)" xlink:href="#DejaVuSans-65"/>
     <use transform="translate(297.119141 0.015625)" xlink:href="#DejaVuSans-72"/>
     <use transform="translate(338.232422 0.015625)" xlink:href="#DejaVuSans-69"/>
     <use transform="translate(366.015625 0.015625)" xlink:href="#DejaVuSans-63"/>
     <use transform="translate(420.996094 0.015625)" xlink:href="#DejaVuSans-61"/>
     <use transform="translate(482.275391 0.015625)" xlink:href="#DejaVuSans-6c"/>
     <use transform="translate(510.058594 0.015625)" xlink:href="#DejaVuSans-20"/>
     <use transform="translate(541.845703 0.015625)" xlink:href="#DejaVuSans-44"/>
     <use transform="translate(618.847656 0.015625)" xlink:href="#DejaVuSans-69"/>
     <use transform="translate(646.630859 0.015625)" xlink:href="#DejaVuSans-73"/>
     <use transform="translate(698.730469 0.015625)" xlink:href="#DejaVuSans-74"/>
     <use transform="translate(737.939453 0.015625)" xlink:href="#DejaVuSans-72"/>
     <use transform="translate(779.052734 0.015625)" xlink:href="#DejaVuSans-69"/>
     <use transform="translate(806.835938 0.015625)" xlink:href="#DejaVuSans-62"/>
     <use transform="translate(870.3125 0.015625)" xlink:href="#DejaVuSans-75"/>
     <use transform="translate(933.691406 0.015625)" xlink:href="#DejaVuSans-74"/>
     <use transform="translate(972.900391 0.015625)" xlink:href="#DejaVuSans-69"/>
     <use transform="translate(1000.683594 0.015625)" xlink:href="#DejaVuSans-6f"/>
     <use transform="translate(1061.865234 0.015625)" xlink:href="#DejaVuSans-6e"/>
     <use transform="translate(1125.244141 0.015625)" xlink:href="#DejaVuSans-20"/>
     <use transform="translate(1157.03125 0.015625)" xlink:href="#DejaVuSans-6f"/>
     <use transform="translate(1218.212891 0.015625)" xlink:href="#DejaVuSans-66"/>
     <use transform="translate(1253.417969 0.015625)" xlink:href="#DejaVuSans-20"/>
     <use transform="translate(1285.205078 0.015625)" xlink:href="#DejaVuSans-Oblique-52"/>
    </g>
   </g>
  </g>
  <g id="axes_2">
   <g id="patch_158">
    <path d="M 69.12 190.08 
L 207.36 190.08 
L 207.36 86.4 
L 69.12 86.4 
z
" style="fill:#ffffff;"/>
   </g>
   <g id="patch_159">
    <path clip-path="url(#peaa278fc93)" d="M 75.403636 190.08 
L 75.403636 190.079013 
L 122.321455 189.969408 
L 122.321455 189.956571 
L 129.024 189.852891 
L 129.024 189.832155 
L 133.213091 189.740325 
L 133.213091 189.697865 
L 135.726545 189.625783 
L 135.726545 189.573449 
L 138.24 189.477669 
L 138.24 189.430272 
L 139.915636 189.381888 
L 139.915636 189.31573 
L 141.591273 189.239698 
L 141.591273 189.169591 
L 143.266909 189.076773 
L 143.266909 188.990866 
L 144.942545 188.886199 
L 144.942545 188.775607 
L 145.780364 188.775607 
L 145.780364 188.654153 
L 146.618182 188.654153 
L 146.618182 188.509001 
L 147.456 188.509001 
L 147.456 188.366811 
L 148.293818 188.366811 
L 148.293818 188.206848 
L 149.131636 188.206848 
L 149.131636 188.041947 
L 149.969455 188.041947 
L 149.969455 187.836562 
L 150.807273 187.836562 
L 150.807273 187.623278 
L 151.645091 187.623278 
L 151.645091 187.370496 
L 152.482909 187.370496 
L 152.482909 187.084142 
L 153.320727 187.084142 
L 153.320727 186.801737 
L 154.158545 186.801737 
L 154.158545 186.479835 
L 154.996364 186.479835 
L 154.996364 186.134235 
L 155.834182 186.134235 
L 155.834182 185.755063 
L 156.672 185.755063 
L 156.672 185.331456 
L 157.509818 185.331456 
L 157.509818 184.863415 
L 158.347636 184.863415 
L 158.347636 184.385499 
L 159.185455 184.385499 
L 159.185455 183.842414 
L 160.023273 183.842414 
L 160.023273 183.212434 
L 160.861091 183.212434 
L 160.861091 182.456064 
L 161.698909 182.456064 
L 161.698909 181.653285 
L 162.536727 181.653285 
L 162.536727 180.761637 
L 163.374545 180.761637 
L 163.374545 179.75051 
L 164.212364 179.75051 
L 164.212364 178.672238 
L 165.050182 178.672238 
L 165.050182 177.491273 
L 165.888 177.491273 
L 165.888 176.081225 
L 166.725818 176.081225 
L 166.725818 174.503314 
L 167.563636 174.503314 
L 167.563636 172.716069 
L 168.401455 172.716069 
L 168.401455 170.812306 
L 169.239273 170.812306 
L 169.239273 168.617253 
L 170.077091 168.617253 
L 170.077091 166.225701 
L 170.914909 166.225701 
L 170.914909 163.515209 
L 171.752727 163.515209 
L 171.752727 160.465042 
L 172.590545 160.465042 
L 172.590545 157.00608 
L 173.428364 157.00608 
L 173.428364 153.252864 
L 174.266182 153.252864 
L 174.266182 149.060242 
L 175.104 149.060242 
L 175.104 144.659273 
L 175.941818 144.659273 
L 175.941818 140.043045 
L 176.779636 140.043045 
L 176.779636 135.246117 
L 177.617455 135.246117 
L 177.617455 130.307986 
L 178.455273 130.307986 
L 178.455273 125.461687 
L 179.293091 125.461687 
L 179.293091 120.732891 
L 180.130909 120.732891 
L 180.130909 116.285513 
L 180.968727 116.285513 
L 180.968727 112.102766 
L 181.806545 112.102766 
L 181.806545 108.327826 
L 182.644364 108.327826 
L 182.644364 104.952795 
L 183.482182 104.952795 
L 183.482182 102.045806 
L 184.32 102.045806 
L 184.32 99.503177 
L 185.157818 99.503177 
L 185.157818 97.480923 
L 185.995636 97.480923 
L 185.995636 95.852654 
L 186.833455 95.852654 
L 186.833455 94.62528 
L 187.671273 94.62528 
L 187.671273 93.672411 
L 188.509091 93.672411 
L 188.509091 92.937765 
L 189.346909 92.937765 
L 189.346909 92.416402 
L 190.184727 92.416402 
L 190.184727 92.060928 
L 191.022545 92.060928 
L 191.022545 91.796297 
L 191.860364 91.796297 
L 191.860364 91.596837 
L 193.536 91.497106 
L 193.536 91.436873 
L 201.076364 91.337143 
L 201.076364 190.08 
L 201.076364 190.08 
" style="fill:none;stroke:#ff0000;stroke-linejoin:miter;"/>
   </g>
   <g id="matplotlib.axis_3">
    <g id="xtick_7">
     <g id="line2d_27">
      <g>
       <use style="stroke:#000000;stroke-width:0.8;" x="76.964074" xlink:href="#me8e8d5edd9" y="190.08"/>
      </g>
     </g>
     <g id="text_18">
      <!-- 0 -->
      <g transform="translate(73.782824 204.678437)scale(0.1 -0.1)">
       <use xlink:href="#DejaVuSans-30"/>
      </g>
     </g>
    </g>
    <g id="xtick_8">
     <g id="line2d_28">
      <g>
       <use style="stroke:#000000;stroke-width:0.8;" x="132.339209" xlink:href="#me8e8d5edd9" y="190.08"/>
      </g>
     </g>
     <g id="text_19">
      <!-- 5 -->
      <g transform="translate(129.157959 204.678437)scale(0.1 -0.1)">
       <use xlink:href="#DejaVuSans-35"/>
      </g>
     </g>
    </g>
    <g id="xtick_9">
     <g id="line2d_29">
      <g>
       <use style="stroke:#000000;stroke-width:0.8;" x="187.714344" xlink:href="#me8e8d5edd9" y="190.08"/>
      </g>
     </g>
     <g id="text_20">
      <!-- 10 -->
      <g transform="translate(181.351844 204.678437)scale(0.1 -0.1)">
       <use xlink:href="#DejaVuSans-31"/>
       <use x="63.623047" xlink:href="#DejaVuSans-30"/>
      </g>
     </g>
    </g>
   </g>
   <g id="matplotlib.axis_4"/>
   <g id="line2d_30">
    <path clip-path="url(#peaa278fc93)" d="M 69.12 185.142857 
L 207.36 185.142857 
" style="fill:none;stroke:#808080;stroke-linecap:square;stroke-width:1.5;"/>
   </g>
   <g id="line2d_31">
    <path clip-path="url(#peaa278fc93)" d="M 69.12 96.274286 
L 207.36 96.274286 
" style="fill:none;stroke:#808080;stroke-linecap:square;stroke-width:1.5;"/>
   </g>
   <g id="patch_160">
    <path d="M 69.12 190.08 
L 69.12 86.4 
" style="fill:none;stroke:#000000;stroke-linecap:square;stroke-linejoin:miter;stroke-width:0.8;"/>
   </g>
   <g id="patch_161">
    <path d="M 207.36 190.08 
L 207.36 86.4 
" style="fill:none;stroke:#000000;stroke-linecap:square;stroke-linejoin:miter;stroke-width:0.8;"/>
   </g>
   <g id="patch_162">
    <path d="M 69.12 190.08 
L 207.36 190.08 
" style="fill:none;stroke:#000000;stroke-linecap:square;stroke-linejoin:miter;stroke-width:0.8;"/>
   </g>
   <g id="patch_163">
    <path d="M 69.12 86.4 
L 207.36 86.4 
" style="fill:none;stroke:#000000;stroke-linecap:square;stroke-linejoin:miter;stroke-width:0.8;"/>
   </g>
   <g id="text_21">
    <!-- $R_{hi} = 9.845$ -->
    <defs>
     <path d="M 55.71875 33.015625 
L 49.3125 0 
L 40.28125 0 
L 46.6875 32.671875 
Q 47.125 34.96875 47.359375 36.71875 
Q 47.609375 38.484375 47.609375 39.5 
Q 47.609375 43.609375 45.015625 45.890625 
Q 42.4375 48.1875 37.796875 48.1875 
Q 30.5625 48.1875 25.265625 43.296875 
Q 19.96875 38.421875 18.40625 30.328125 
L 12.5 0 
L 3.515625 0 
L 18.3125 75.984375 
L 27.296875 75.984375 
L 21.484375 46.09375 
Q 24.90625 50.6875 30.21875 53.34375 
Q 35.546875 56 41.40625 56 
Q 48.640625 56 52.609375 52.09375 
Q 56.59375 48.1875 56.59375 41.109375 
Q 56.59375 39.359375 56.375 37.359375 
Q 56.15625 35.359375 55.71875 33.015625 
z
" id="DejaVuSans-Oblique-68"/>
     <path d="M 18.3125 75.984375 
L 27.296875 75.984375 
L 25.09375 64.59375 
L 16.109375 64.59375 
z
M 14.203125 54.6875 
L 23.1875 54.6875 
L 12.5 0 
L 3.515625 0 
z
" id="DejaVuSans-Oblique-69"/>
     <path d="M 10.59375 45.40625 
L 73.1875 45.40625 
L 73.1875 37.203125 
L 10.59375 37.203125 
z
M 10.59375 25.484375 
L 73.1875 25.484375 
L 73.1875 17.1875 
L 10.59375 17.1875 
z
" id="DejaVuSans-3d"/>
     <path d="M 10.984375 1.515625 
L 10.984375 10.5 
Q 14.703125 8.734375 18.5 7.8125 
Q 22.3125 6.890625 25.984375 6.890625 
Q 35.75 6.890625 40.890625 13.453125 
Q 46.046875 20.015625 46.78125 33.40625 
Q 43.953125 29.203125 39.59375 26.953125 
Q 35.25 24.703125 29.984375 24.703125 
Q 19.046875 24.703125 12.671875 31.3125 
Q 6.296875 37.9375 6.296875 49.421875 
Q 6.296875 60.640625 12.9375 67.421875 
Q 19.578125 74.21875 30.609375 74.21875 
Q 43.265625 74.21875 49.921875 64.515625 
Q 56.59375 54.828125 56.59375 36.375 
Q 56.59375 19.140625 48.40625 8.859375 
Q 40.234375 -1.421875 26.421875 -1.421875 
Q 22.703125 -1.421875 18.890625 -0.6875 
Q 15.09375 0.046875 10.984375 1.515625 
z
M 30.609375 32.421875 
Q 37.25 32.421875 41.125 36.953125 
Q 45.015625 41.5 45.015625 49.421875 
Q 45.015625 57.28125 41.125 61.84375 
Q 37.25 66.40625 30.609375 66.40625 
Q 23.96875 66.40625 20.09375 61.84375 
Q 16.21875 57.28125 16.21875 49.421875 
Q 16.21875 41.5 20.09375 36.953125 
Q 23.96875 32.421875 30.609375 32.421875 
z
" id="DejaVuSans-39"/>
    </defs>
    <g transform="translate(82.944 145.538625)scale(0.12 -0.12)">
     <use transform="translate(0 0.78125)" xlink:href="#DejaVuSans-Oblique-52"/>
     <use transform="translate(69.482422 -15.625)scale(0.7)" xlink:href="#DejaVuSans-Oblique-68"/>
     <use transform="translate(113.847656 -15.625)scale(0.7)" xlink:href="#DejaVuSans-Oblique-69"/>
     <use transform="translate(155.512695 0.78125)" xlink:href="#DejaVuSans-3d"/>
     <use transform="translate(258.78418 0.78125)" xlink:href="#DejaVuSans-39"/>
     <use transform="translate(322.407227 0.78125)" xlink:href="#DejaVuSans-2e"/>
     <use transform="translate(354.163086 0.78125)" xlink:href="#DejaVuSans-38"/>
     <use transform="translate(417.786133 0.78125)" xlink:href="#DejaVuSans-34"/>
     <use transform="translate(481.40918 0.78125)" xlink:href="#DejaVuSans-35"/>
    </g>
    <!-- $R_{lo} = 7.273$ -->
    <defs>
     <path d="M 18.3125 75.984375 
L 27.296875 75.984375 
L 12.5 0 
L 3.515625 0 
z
" id="DejaVuSans-Oblique-6c"/>
     <path d="M 25.390625 -1.421875 
Q 15.765625 -1.421875 10.171875 4.515625 
Q 4.59375 10.453125 4.59375 20.703125 
Q 4.59375 26.65625 6.515625 32.828125 
Q 8.453125 39.015625 11.53125 43.21875 
Q 16.359375 49.75 22.3125 52.875 
Q 28.265625 56 35.796875 56 
Q 45.125 56 50.859375 50.1875 
Q 56.59375 44.390625 56.59375 35.015625 
Q 56.59375 28.515625 54.6875 22.0625 
Q 52.78125 15.625 49.703125 11.375 
Q 44.921875 4.828125 38.96875 1.703125 
Q 33.015625 -1.421875 25.390625 -1.421875 
z
M 13.921875 21 
Q 13.921875 13.578125 17.015625 9.890625 
Q 20.125 6.203125 26.421875 6.203125 
Q 35.453125 6.203125 41.375 14.078125 
Q 47.3125 21.96875 47.3125 34.078125 
Q 47.3125 41.15625 44.140625 44.765625 
Q 40.96875 48.390625 34.8125 48.390625 
Q 29.734375 48.390625 25.78125 46.015625 
Q 21.828125 43.65625 18.703125 38.8125 
Q 16.40625 35.203125 15.15625 30.5625 
Q 13.921875 25.921875 13.921875 21 
z
" id="DejaVuSans-Oblique-6f"/>
    </defs>
    <g transform="translate(82.944 158.976)scale(0.12 -0.12)">
     <use transform="translate(0 0.78125)" xlink:href="#DejaVuSans-Oblique-52"/>
     <use transform="translate(69.482422 -15.625)scale(0.7)" xlink:href="#DejaVuSans-Oblique-6c"/>
     <use transform="translate(88.930664 -15.625)scale(0.7)" xlink:href="#DejaVuSans-Oblique-6f"/>
     <use transform="translate(153.974609 0.78125)" xlink:href="#DejaVuSans-3d"/>
     <use transform="translate(257.246094 0.78125)" xlink:href="#DejaVuSans-37"/>
     <use transform="translate(320.869141 0.78125)" xlink:href="#DejaVuSans-2e"/>
     <use transform="translate(352.578125 0.78125)" xlink:href="#DejaVuSans-32"/>
     <use transform="translate(416.201172 0.78125)" xlink:href="#DejaVuSans-37"/>
     <use transform="translate(479.824219 0.78125)" xlink:href="#DejaVuSans-33"/>
    </g>
   </g>
  </g>
 </g>
 <defs>
  <clipPath id="pab2d857695">
   <rect height="266.112" width="357.12" x="57.6" y="41.472"/>
  </clipPath>
  <clipPath id="peaa278fc93">
   <rect height="103.68" width="138.24" x="69.12" y="86.4"/>
  </clipPath>
 </defs>
</svg>
